<svg
   version="1.1"
   id="svg2"
   width="3465.3333"
   height="2310.6667"
   viewBox="0 0 3465.3333 2310.6667"
   sodipodi:docname="81091509_SL-011023-55240-04.eps"
   xmlns:inkscape="http://www.inkscape.org/namespaces/inkscape"
   xmlns:sodipodi="http://sodipodi.sourceforge.net/DTD/sodipodi-0.dtd"
   xmlns="http://www.w3.org/2000/svg"
   xmlns:svg="http://www.w3.org/2000/svg">
  <defs
     id="defs6" />
  <sodipodi:namedview
     id="namedview4"
     pagecolor="#ffffff"
     bordercolor="#000000"
     borderopacity="0.25"
     inkscape:showpageshadow="2"
     inkscape:pageopacity="0.0"
     inkscape:pagecheckerboard="0"
     inkscape:deskcolor="#d1d1d1" />
  <g
     id="g8"
     inkscape:groupmode="layer"
     inkscape:label="ink_ext_XXXXXX"
     transform="matrix(1.3333333,0,0,-1.3333333,0,2310.6667)">
    <g
       id="g10"
       transform="scale(0.1)">
      <path
         d="M 25980.8,9.5 H 0 V 17330 H 25980.8 V 9.5"
         style="fill:#ffffff;fill-opacity:1;fill-rule:nonzero;stroke:none"
         id="path12" />
      <path
         d="m 13983.9,14117.6 c -109.7,-37 -103.4,-148.4 -174.3,-273.4 -103.9,-183.3 -39,-294.5 58.5,-291.7 97.5,2.8 142.7,127.7 240.8,155.8 0.3,0.1 0.6,0.2 0.9,0.3 0.3,0.1 0.6,0.2 0.9,0.3 96.9,31.9 204.6,-45.9 286.8,6.6 82.2,52.6 73.3,181 -115.8,274.1 -128.9,63.5 -186.3,159.1 -297.8,128"
         style="fill:#176298;fill-opacity:1;fill-rule:nonzero;stroke:none"
         id="path14" />
      <path
         d="m 13691.7,14117.4 c 87.1,-65.3 123.6,-163.7 81.5,-219.8 -42.1,-56.2 -146.8,-48.8 -233.8,16.5 -87.1,65.3 -123.6,163.7 -81.5,219.8 42.1,56.1 146.7,48.7 233.8,-16.5"
         style="fill:#176298;fill-opacity:1;fill-rule:nonzero;stroke:none"
         id="path16" />
      <path
         d="m 14225.5,14281.8 c -35.3,-103 -10,-204.9 56.3,-227.6 66.4,-22.7 148.8,42.3 184,145.2 35.3,103 10.1,204.9 -56.3,227.6 -66.3,22.7 -148.7,-42.3 -184,-145.2"
         style="fill:#176298;fill-opacity:1;fill-rule:nonzero;stroke:none"
         id="path18" />
      <path
         d="m 13864.8,14402.3 c 52.5,-102 41.7,-212.2 -24.1,-246 -65.8,-33.8 -161.7,21.5 -214.1,123.5 -52.5,102.1 -41.7,212.2 24.1,246.1 65.7,33.8 161.6,-21.5 214.1,-123.6"
         style="fill:#176298;fill-opacity:1;fill-rule:nonzero;stroke:none"
         id="path20" />
      <path
         d="m 13922.1,14420 c 14,-113.9 84.9,-198.9 158.3,-189.9 73.5,9.1 121.6,108.7 107.6,222.6 -14,113.9 -84.9,198.9 -158.3,189.9 -73.5,-9.1 -121.6,-108.7 -107.6,-222.6"
         style="fill:#176298;fill-opacity:1;fill-rule:nonzero;stroke:none"
         id="path22" />
      <path
         d="m 16727,14460.5 c -89.7,-73.1 -44.7,-175.2 -67.2,-317.1 -32.9,-208.2 66.9,-289.5 157.2,-252.7 90.3,36.9 88.8,169.7 170.8,230.5 0.3,0.2 0.5,0.3 0.8,0.5 0.2,0.2 0.5,0.4 0.7,0.6 79.5,64 207.6,28.9 266.2,107 58.5,78 5.1,195.2 -204.7,216 -143,14.1 -230.3,83.5 -323.8,15.2"
         style="fill:#176298;fill-opacity:1;fill-rule:nonzero;stroke:none"
         id="path24" />
      <path
         d="m 16453.5,14357.7 c 104.5,-30.5 173.2,-109.8 153.5,-177.2 -19.7,-67.3 -120.3,-97.1 -224.8,-66.6 -104.4,30.5 -173.1,109.9 -153.4,177.2 19.7,67.3 120.3,97.2 224.7,66.6"
         style="fill:#176298;fill-opacity:1;fill-rule:nonzero;stroke:none"
         id="path26" />
      <path
         d="m 16895.6,14699.1 c 3.1,-108.8 62.5,-195.3 132.6,-193.3 70.1,2 124.5,91.8 121.3,200.6 -3.1,108.7 -62.4,195.3 -132.6,193.3 -70.1,-2 -124.4,-91.9 -121.3,-200.6"
         style="fill:#176298;fill-opacity:1;fill-rule:nonzero;stroke:none"
         id="path28" />
      <path
         d="m 16515.5,14685.3 c 85,-77.1 113.6,-184 63.9,-238.8 -49.8,-54.8 -158.9,-36.7 -243.9,40.4 -85,77.2 -113.6,184.1 -63.8,238.9 49.7,54.8 158.9,36.6 243.8,-40.5"
         style="fill:#176298;fill-opacity:1;fill-rule:nonzero;stroke:none"
         id="path30" />
      <path
         d="m 16563,14721.9 c 53.1,-101.7 149.3,-156.4 214.9,-122.1 65.6,34.2 75.7,144.5 22.6,246.2 -53.2,101.7 -149.4,156.4 -214.9,122.1 -65.6,-34.2 -75.7,-144.4 -22.6,-246.2"
         style="fill:#176298;fill-opacity:1;fill-rule:nonzero;stroke:none"
         id="path32" />
      <path
         d="m 24833.2,5998.9 c -53.6,-102.6 28.1,-178.7 63.4,-317.9 51.9,-204.3 175.7,-239.7 244.1,-170.1 68.5,69.5 14.7,190.9 66,279.1 0.2,0.3 0.4,0.5 0.5,0.8 0.2,0.3 0.3,0.6 0.5,0.9 47.8,90.1 179.3,108.5 202.3,203.3 23,94.8 -72.3,181.3 -273.3,117.6 -136.9,-43.4 -244.6,-14.1 -303.5,-113.7"
         style="fill:#176298;fill-opacity:1;fill-rule:nonzero;stroke:none"
         id="path34" />
      <path
         d="m 24622.5,5796.5 c 108,13.2 202.4,-32.6 210.9,-102.3 8.5,-69.6 -72.2,-136.7 -180.2,-149.9 -108,-13.1 -202.4,32.7 -210.9,102.3 -8.5,69.6 72.2,136.7 180.2,149.9"
         style="fill:#176298;fill-opacity:1;fill-rule:nonzero;stroke:none"
         id="path36" />
      <path
         d="m 24894,6284.6 c 45.8,-98.7 134.5,-154.8 198.1,-125.3 63.6,29.6 78.1,133.5 32.3,232.2 -45.8,98.7 -134.5,154.8 -198.1,125.3 -63.6,-29.5 -78.1,-133.5 -32.3,-232.2"
         style="fill:#176298;fill-opacity:1;fill-rule:nonzero;stroke:none"
         id="path38" />
      <path
         d="m 24550.2,6122 c 108.5,-37.4 176.9,-124.3 152.9,-194.3 -24.1,-69.9 -131.6,-96.4 -240.1,-59.1 -108.5,37.4 -176.9,124.4 -152.9,194.3 24.1,70 131.6,96.4 240.1,59.1"
         style="fill:#176298;fill-opacity:1;fill-rule:nonzero;stroke:none"
         id="path40" />
      <path
         d="m 24579.3,6174.4 c 89,-72.5 199,-84.8 245.7,-27.5 46.7,57.4 12.5,162.6 -76.4,235.1 -89,72.5 -199,84.8 -245.7,27.5 -46.7,-57.4 -12.5,-162.6 76.4,-235.1"
         style="fill:#176298;fill-opacity:1;fill-rule:nonzero;stroke:none"
         id="path42" />
      <path
         d="m 836.281,9730.3 c -113.937,20.45 -162.082,-80.19 -284.394,-155.56 -179.449,-110.58 -176.153,-239.3 -89.364,-283.82 86.797,-44.51 186.622,43.09 286.114,20.47 0.308,-0.08 0.621,-0.14 0.926,-0.21 0.316,-0.06 0.621,-0.12 0.933,-0.18 100.301,-18.71 157.172,-138.73 254.494,-132.31 97.33,6.41 151.44,123.25 30.6,295.97 -82.36,117.72 -86.613,229.2 -199.309,255.64"
         style="fill:#176298;fill-opacity:1;fill-rule:nonzero;stroke:none"
         id="path44" />
      <path
         d="m 580.176,9870.88 c 44.847,-99.14 29.398,-202.94 -34.52,-231.86 -63.91,-28.91 -152.078,28.02 -196.926,127.16 -44.843,99.14 -29.39,202.95 34.524,231.86 63.91,28.86 152.074,-28.02 196.922,-127.16"
         style="fill:#176298;fill-opacity:1;fill-rule:nonzero;stroke:none"
         id="path46" />
      <path
         d="m 1127.14,9757.71 c -80.51,-73.2 -107.51,-174.62 -60.32,-226.52 47.19,-51.9 150.71,-34.62 231.22,38.58 80.5,73.2 107.51,174.62 60.32,226.52 -47.19,51.89 -150.71,34.63 -231.22,-38.58"
         style="fill:#176298;fill-opacity:1;fill-rule:nonzero;stroke:none"
         id="path48" />
      <path
         d="m 869.16,10037.2 c -3.187,-114.74 -65.722,-206.06 -139.672,-204 -73.949,2.05 -131.312,96.7 -128.125,211.4 3.196,114.7 65.723,206 139.672,204 73.949,-2.1 131.313,-96.7 128.125,-211.4"
         style="fill:#176298;fill-opacity:1;fill-rule:nonzero;stroke:none"
         id="path50" />
      <path
         d="m 927.875,10025 c -42.594,-106.54 -21.434,-215.17 47.258,-242.63 68.697,-27.46 158.907,36.66 201.507,143.22 42.58,106.51 21.42,215.21 -47.27,242.61 -68.69,27.5 -158.905,-36.6 -201.495,-143.2"
         style="fill:#176298;fill-opacity:1;fill-rule:nonzero;stroke:none"
         id="path52" />
      <path
         d="m 21457.8,13647.3 c -92.9,-69.1 -52.4,-173 -81.1,-313.8 -42.1,-206.6 54,-292.2 145.9,-259.4 91.8,32.9 96.2,165.6 180.8,222.7 0.3,0.2 0.5,0.4 0.8,0.6 0.2,0.1 0.5,0.3 0.7,0.5 82.3,60.4 208.8,19.7 270.7,95.1 61.9,75.4 13.7,194.8 -195,224.8 -142.2,20.5 -226.4,93.6 -322.8,29.5"
         style="fill:#176298;fill-opacity:1;fill-rule:nonzero;stroke:none"
         id="path54" />
      <path
         d="m 21180.1,13556.7 c 103,-35.1 168.1,-117.4 145.5,-183.8 -22.7,-66.4 -124.5,-91.7 -227.5,-56.6 -103,35.1 -168.1,117.4 -145.5,183.8 22.6,66.3 124.5,91.7 227.5,56.6"
         style="fill:#176298;fill-opacity:1;fill-rule:nonzero;stroke:none"
         id="path56" />
      <path
         d="m 21636.8,13878.2 c -1.7,-108.8 53.8,-197.8 123.9,-198.9 70.2,-1.1 128.4,86.2 130.1,195 1.7,108.8 -53.8,197.9 -124,199 -70.1,1.1 -128.3,-86.3 -130,-195.1"
         style="fill:#176298;fill-opacity:1;fill-rule:nonzero;stroke:none"
         id="path58" />
      <path
         d="m 21256.5,13881.2 c 81.5,-80.8 105.3,-188.8 53.2,-241.4 -52.1,-52.5 -160.4,-29.6 -241.9,51.2 -81.4,80.8 -105.3,188.9 -53.2,241.4 52.1,52.5 160.4,29.6 241.9,-51.2"
         style="fill:#176298;fill-opacity:1;fill-rule:nonzero;stroke:none"
         id="path60" />
      <path
         d="m 21305.5,13915.8 c 48.6,-104 142.3,-162.9 209.3,-131.6 67,31.4 82,141 33.4,245 -48.6,103.9 -142.3,162.8 -209.3,131.5 -67,-31.3 -82,-141 -33.4,-244.9"
         style="fill:#176298;fill-opacity:1;fill-rule:nonzero;stroke:none"
         id="path62" />
      <path
         d="m 24739.8,14784.1 c -85.7,77.9 -179.9,18.2 -323.6,19.4 -210.8,1.8 -276.4,-109 -226.6,-192.8 49.8,-83.9 181,-62.8 253.2,-134.8 0.2,-0.2 0.4,-0.5 0.7,-0.7 0.2,-0.2 0.4,-0.4 0.7,-0.6 75,-69.2 59.3,-201.1 145.2,-247.4 85.8,-46.3 193.8,23.9 183.2,234.4 -7.1,143.5 48.6,240.2 -32.8,322.5"
         style="fill:#176298;fill-opacity:1;fill-rule:nonzero;stroke:none"
         id="path64" />
      <path
         d="m 24597.6,15039.3 c -14.7,-107.8 -83,-187.5 -152.5,-178 -69.5,9.5 -113.9,104.6 -99.2,212.4 14.8,107.8 83,187.5 152.5,178 69.5,-9.5 113.9,-104.6 99.2,-212.4"
         style="fill:#176298;fill-opacity:1;fill-rule:nonzero;stroke:none"
         id="path66" />
      <path
         d="m 25000.7,14652.6 c -107.1,-19.2 -183.9,-90.7 -171.5,-159.7 12.3,-69.1 109.2,-109.5 216.3,-90.3 107.1,19.2 183.9,90.7 171.5,159.8 -12.4,69 -109.2,109.4 -216.3,90.2"
         style="fill:#176298;fill-opacity:1;fill-rule:nonzero;stroke:none"
         id="path68" />
      <path
         d="m 24930.8,15026.5 c -63.7,-95.5 -165.2,-139.6 -226.8,-98.5 -61.5,41.1 -59.8,151.7 3.9,247.2 63.7,95.4 165.2,139.5 226.8,98.5 61.5,-41.1 59.8,-151.8 -3.9,-247.2"
         style="fill:#176298;fill-opacity:1;fill-rule:nonzero;stroke:none"
         id="path70" />
      <path
         d="m 24974,14985 c -92.7,-67.6 -132.5,-170.9 -89,-230.7 43.6,-59.7 154.1,-53.4 246.9,14.2 92.7,67.6 132.5,170.9 88.9,230.6 -43.5,59.8 -154,53.5 -246.8,-14.1"
         style="fill:#176298;fill-opacity:1;fill-rule:nonzero;stroke:none"
         id="path72" />
      <path
         d="m 11437.2,16016.9 c -67.4,-94.1 2.9,-180.8 18.6,-323.6 22.9,-209.5 140.6,-261.8 218,-202.4 77.5,59.3 41.1,187 104.2,267.2 0.2,0.3 0.4,0.5 0.6,0.7 0.2,0.3 0.4,0.6 0.6,0.8 59.9,82.6 192.7,82.5 228.6,173.2 36,90.7 -46.4,189.6 -254.2,154.5 -141.7,-23.9 -244.2,20.1 -316.4,-70.4"
         style="fill:#176298;fill-opacity:1;fill-rule:nonzero;stroke:none"
         id="path74" />
      <path
         d="m 11200.3,15845.8 c 108.8,-2 196,-60.4 194.7,-130.6 -1.3,-70.1 -90.5,-125.3 -199.3,-123.4 -108.8,2 -196,60.5 -194.7,130.6 1.3,70.2 90.6,125.4 199.3,123.4"
         style="fill:#176298;fill-opacity:1;fill-rule:nonzero;stroke:none"
         id="path76" />
      <path
         d="m 11537.1,16291.4 c 31.6,-104.1 111.7,-172 178.8,-151.6 67.1,20.4 95.9,121.3 64.3,225.4 -31.6,104.1 -111.7,172 -178.8,151.6 -67.1,-20.3 -95.9,-121.3 -64.3,-225.4"
         style="fill:#176298;fill-opacity:1;fill-rule:nonzero;stroke:none"
         id="path78" />
      <path
         d="m 11174,16178.2 c 102.3,-52.1 158,-147.7 124.4,-213.6 -33.6,-66 -143.7,-77.2 -245.9,-25.1 -102.3,52 -158,147.7 -124.4,213.6 33.6,65.9 143.7,77.2 245.9,25.1"
         style="fill:#176298;fill-opacity:1;fill-rule:nonzero;stroke:none"
         id="path80" />
      <path
         d="m 11210.2,16226 c 78,-84.1 185.2,-111.6 239.5,-61.3 54.2,50.3 35,159.3 -43,243.4 -78,84.2 -185.2,111.7 -239.5,61.4 -54.2,-50.3 -35,-159.3 43,-243.5"
         style="fill:#176298;fill-opacity:1;fill-rule:nonzero;stroke:none"
         id="path82" />
      <path
         d="m 6103.92,9608.18 c -96.62,63.76 -180.56,-9.73 -322.7,-30.73 -208.52,-30.8 -256.28,-150.38 -194.09,-225.53 62.19,-75.14 188.48,-34.03 270.97,-94.08 0.26,-0.19 0.51,-0.38 0.77,-0.56 0.26,-0.18 0.53,-0.35 0.79,-0.53 84.78,-56.76 89.68,-189.49 181.64,-221.99 91.96,-32.51 187.79,53.5 144.9,259.88 -29.23,140.67 10.84,244.79 -82.28,313.54"
         style="fill:#176298;fill-opacity:1;fill-rule:nonzero;stroke:none"
         id="path84" />
      <path
         d="m 5924.06,9838.41 c 2.1,-108.79 -53.06,-198.08 -123.2,-199.43 -70.13,-1.35 -128.68,85.75 -130.78,194.54 -2.09,108.8 53.07,198.08 123.2,199.38 70.14,1.4 128.69,-85.7 130.78,-194.49"
         style="fill:#176298;fill-opacity:1;fill-rule:nonzero;stroke:none"
         id="path86" />
      <path
         d="m 6382,9518.61 c -102.86,-35.5 -167.69,-118.03 -144.8,-184.34 22.88,-66.31 124.82,-91.29 227.67,-55.79 102.86,35.5 167.69,118.04 144.81,184.35 -22.89,66.31 -124.82,91.28 -227.68,55.78"
         style="fill:#176298;fill-opacity:1;fill-rule:nonzero;stroke:none"
         id="path88" />
      <path
         d="m 6255.21,9877.18 c -48.19,-104.14 -141.68,-163.38 -208.82,-132.31 -67.13,31.06 -82.5,140.67 -34.31,244.81 48.19,104.12 141.68,163.42 208.82,132.32 67.14,-31.1 82.5,-140.67 34.31,-244.82"
         style="fill:#176298;fill-opacity:1;fill-rule:nonzero;stroke:none"
         id="path90" />
      <path
         d="m 6304.37,9842.86 c -81.18,-81.11 -104.6,-189.29 -52.32,-241.61 52.29,-52.34 160.48,-29.02 241.66,52.09 81.18,81.11 104.6,189.28 52.32,241.61 -52.29,52.33 -160.48,29.01 -241.66,-52.09"
         style="fill:#176298;fill-opacity:1;fill-rule:nonzero;stroke:none"
         id="path92" />
      <path
         d="m 11383.5,12771.8 c -73.3,-89.5 -8.9,-180.6 -2.7,-324.1 9.1,-210.6 123.1,-270.4 204.3,-216.3 81.2,54.1 53.3,183.9 121.5,259.8 0.3,0.2 0.5,0.5 0.7,0.7 0.2,0.2 0.4,0.5 0.6,0.7 65.2,78.5 197.7,69.7 239.5,157.8 41.9,88.1 -33.8,192.3 -243.5,170.9 -142.9,-14.5 -242.4,36.1 -320.4,-49.5"
         style="fill:#176298;fill-opacity:1;fill-rule:nonzero;stroke:none"
         id="path94" />
      <path
         d="m 11136,12616.7 c 108.4,-9.1 191.5,-73.2 185.6,-143.1 -5.9,-69.9 -98.5,-119.2 -207,-110 -108.4,9.1 -191.5,73.2 -185.6,143.1 5.9,69.9 98.6,119.2 207,110"
         style="fill:#176298;fill-opacity:1;fill-rule:nonzero;stroke:none"
         id="path96" />
      <path
         d="m 11501.3,13039.2 c 24.7,-106 100.1,-179 168.4,-163 68.4,15.9 103.7,114.7 79,220.7 -24.7,105.9 -100.1,178.9 -168.4,163 -68.3,-15.9 -103.7,-114.7 -79,-220.7"
         style="fill:#176298;fill-opacity:1;fill-rule:nonzero;stroke:none"
         id="path98" />
      <path
         d="m 11131.6,12950.1 c 98.6,-58.7 147.9,-157.8 110,-221.4 -37.8,-63.5 -148.4,-67.5 -247,-8.8 -98.6,58.6 -147.9,157.8 -110.1,221.3 37.9,63.6 148.5,67.6 247.1,8.9"
         style="fill:#176298;fill-opacity:1;fill-rule:nonzero;stroke:none"
         id="path100" />
      <path
         d="m 11170.8,12995.4 c 72.3,-89.1 177.5,-123.5 234.9,-76.9 57.5,46.6 45.4,156.6 -26.9,245.7 -72.3,89.1 -177.4,123.6 -234.9,77 -57.4,-46.6 -45.4,-156.6 26.9,-245.8"
         style="fill:#176298;fill-opacity:1;fill-rule:nonzero;stroke:none"
         id="path102" />
      <path
         d="m 10455.1,4890.5 c -114.8,-14.9 -130.3,-125.4 -224.1,-234.2 -137.6,-159.6 -95.6,-281.3 0.6,-297.6 96.2,-16.2 164.9,97.5 266.5,106 0.3,0 0.7,0 1,0.1 0.3,0 0.6,0 0.9,0.1 101.3,12.5 191.8,-84.8 282.6,-49.3 90.8,35.6 107.1,163.3 -60.2,291.4 -114.1,87.4 -151.9,192.4 -267.3,183.5"
         style="fill:#176298;fill-opacity:1;fill-rule:nonzero;stroke:none"
         id="path104" />
      <path
         d="m 10168.5,4947.1 c 72.7,-80.9 89.3,-184.5 37.2,-231.4 -52.2,-46.9 -153.5,-19.2 -226.19,61.7 -72.7,81 -89.33,184.6 -37.14,231.5 52.19,46.8 153.43,19.2 226.13,-61.8"
         style="fill:#176298;fill-opacity:1;fill-rule:nonzero;stroke:none"
         id="path106" />
      <path
         d="m 10724.1,5004.5 c -54.6,-94.1 -49.7,-198.9 10.9,-234.1 60.7,-35.3 154.2,12.5 208.8,106.6 54.6,94.1 49.7,198.9 -10.9,234.1 -60.7,35.3 -154.2,-12.5 -208.8,-106.6"
         style="fill:#176298;fill-opacity:1;fill-rule:nonzero;stroke:none"
         id="path108" />
      <path
         d="m 10393.7,5193 c 31.7,-110.3 -0.4,-216.3 -71.5,-236.7 -71.1,-20.4 -154.4,52.5 -186,162.9 -31.6,110.3 0.4,216.2 71.5,236.6 71.2,20.4 154.4,-52.5 186,-162.8"
         style="fill:#176298;fill-opacity:1;fill-rule:nonzero;stroke:none"
         id="path110" />
      <path
         d="m 10453.4,5199.1 c -8.4,-114.4 44.6,-211.6 118.4,-217 73.7,-5.4 140.4,83 148.8,197.4 8.4,114.4 -44.6,211.6 -118.4,217 -73.8,5.4 -140.4,-82.9 -148.8,-197.4"
         style="fill:#176298;fill-opacity:1;fill-rule:nonzero;stroke:none"
         id="path112" />
      <path
         d="m 20015.2,1579.4 c -114.9,-14.4 -130.9,-124.8 -225.2,-233.2 -138.3,-159 -96.8,-280.9 -0.7,-297.6 96.1,-16.6 165.3,96.8 267,104.8 0.3,0.1 0.6,0.1 1,0.1 0.3,0 0.6,0.1 0.9,0.1 101.3,12 191.4,-85.6 282.4,-50.5 91,35.2 107.8,162.8 -59,291.7 -113.7,87.8 -151,193 -266.4,184.6"
         style="fill:#176298;fill-opacity:1;fill-rule:nonzero;stroke:none"
         id="path114" />
      <path
         d="m 19728.8,1637.3 c 72.3,-81.3 88.5,-185 36.1,-231.6 -52.4,-46.6 -153.5,-18.6 -225.8,62.7 -72.4,81.3 -88.6,185 -36.2,231.6 52.4,46.7 153.5,18.6 225.9,-62.7"
         style="fill:#176298;fill-opacity:1;fill-rule:nonzero;stroke:none"
         id="path116" />
      <path
         d="m 20284.6,1692.3 c -55,-93.9 -50.6,-198.8 9.9,-234.2 60.6,-35.5 154.2,11.8 209.3,105.7 55,93.8 50.6,198.7 -9.9,234.2 -60.6,35.5 -154.2,-11.9 -209.3,-105.7"
         style="fill:#176298;fill-opacity:1;fill-rule:nonzero;stroke:none"
         id="path118" />
      <path
         d="m 19955.1,1882.2 c 31.1,-110.5 -1.3,-216.3 -72.6,-236.4 -71.2,-20 -154.1,53.2 -185.2,163.7 -31.2,110.4 1.3,216.2 72.5,236.3 71.2,20.1 154.2,-53.2 185.3,-163.6"
         style="fill:#176298;fill-opacity:1;fill-rule:nonzero;stroke:none"
         id="path120" />
      <path
         d="m 20014.8,1888.1 c -8.9,-114.5 43.6,-211.9 117.4,-217.6 73.7,-5.7 140.7,82.3 149.7,196.8 8.9,114.4 -43.7,211.8 -117.5,217.5 -73.7,5.7 -140.7,-82.3 -149.6,-196.7"
         style="fill:#176298;fill-opacity:1;fill-rule:nonzero;stroke:none"
         id="path122" />
      <path
         d="m 12026.7,10001.4 c -96.5,64 -180.6,-9.23 -322.8,-29.87 -208.6,-30.28 -256.7,-149.75 -194.7,-225.05 62,-75.3 188.4,-34.51 270.8,-94.76 0.2,-0.19 0.5,-0.38 0.7,-0.56 0.3,-0.18 0.6,-0.35 0.8,-0.53 84.7,-56.98 89.2,-189.72 181.1,-222.45 91.9,-32.74 187.9,53.04 145.6,259.52 -28.9,140.74 11.4,244.76 -81.5,313.7"
         style="fill:#176298;fill-opacity:1;fill-rule:nonzero;stroke:none"
         id="path124" />
      <path
         d="m 11847.4,10232.1 c 1.8,-108.8 -53.6,-197.9 -123.7,-199.1 -70.2,-1.2 -128.5,86.1 -130.3,194.9 -1.8,108.8 53.6,197.9 123.7,199.1 70.1,1.2 128.5,-86.1 130.3,-194.9"
         style="fill:#176298;fill-opacity:1;fill-rule:nonzero;stroke:none"
         id="path126" />
      <path
         d="m 12304.5,9911.18 c -102.9,-35.24 -168,-117.62 -145.2,-183.98 22.7,-66.37 124.5,-91.6 227.5,-56.35 102.9,35.24 168,117.61 145.3,183.97 -22.8,66.37 -124.6,91.6 -227.6,56.36"
         style="fill:#176298;fill-opacity:1;fill-rule:nonzero;stroke:none"
         id="path128" />
      <path
         d="m 12178.6,10270.1 c -48.4,-104 -142.1,-163.1 -209.1,-131.8 -67.1,31.2 -82.2,140.9 -33.7,244.9 48.4,104 142.1,163 209.1,131.8 67.1,-31.3 82.2,-140.9 33.7,-244.9"
         style="fill:#176298;fill-opacity:1;fill-rule:nonzero;stroke:none"
         id="path130" />
      <path
         d="m 12227.7,10235.6 c -81.4,-80.9 -105.1,-189 -52.9,-241.46 52.1,-52.47 160.4,-29.42 241.8,51.46 81.3,80.9 105,189 52.9,241.5 -52.2,52.5 -160.4,29.4 -241.8,-51.5"
         style="fill:#176298;fill-opacity:1;fill-rule:nonzero;stroke:none"
         id="path132" />
      <path
         d="m 3423.73,8153.22 c -106.76,44.75 -175.64,-43.01 -311.42,-89.97 -199.2,-68.91 -223.98,-195.26 -148.95,-257.59 75.03,-62.32 191.52,1.47 283.71,-42.25 0.29,-0.14 0.57,-0.28 0.86,-0.41 0.29,-0.13 0.58,-0.25 0.87,-0.37 93.83,-40.08 123.23,-169.6 219.63,-184.51 96.39,-14.91 174.61,87.37 94.24,282.23 -54.79,132.82 -34.69,242.56 -138.94,292.87"
         style="fill:#176298;fill-opacity:1;fill-rule:nonzero;stroke:none"
         id="path134" />
      <path
         d="m 3204.34,8346.15 c 22.21,-106.52 -15.45,-204.49 -84.12,-218.81 -68.68,-14.31 -142.35,60.43 -164.56,166.95 -22.21,106.52 15.45,204.48 84.13,218.8 68.66,14.32 142.34,-60.42 164.55,-166.94"
         style="fill:#176298;fill-opacity:1;fill-rule:nonzero;stroke:none"
         id="path136" />
      <path
         d="m 3713.59,8116.72 c -94.5,-53.94 -142.92,-147.06 -108.15,-207.98 34.78,-60.92 139.58,-66.58 234.08,-12.64 94.5,53.94 142.92,147.05 108.14,207.97 -34.77,60.93 -139.57,66.59 -234.07,12.65"
         style="fill:#176298;fill-opacity:1;fill-rule:nonzero;stroke:none"
         id="path138" />
      <path
         d="m 3522.57,8445.6 c -28.07,-111.27 -108.96,-186.81 -180.69,-168.72 -71.73,18.09 -107.14,122.96 -79.07,234.23 28.06,111.26 108.96,186.8 180.69,168.71 71.73,-18.09 107.13,-122.96 79.07,-234.22"
         style="fill:#176298;fill-opacity:1;fill-rule:nonzero;stroke:none"
         id="path140" />
      <path
         d="m 3577.24,8420.97 c -64.75,-94.74 -67.73,-205.38 -6.65,-247.12 61.08,-41.74 163.07,1.22 227.82,95.96 64.75,94.74 67.73,205.38 6.65,247.12 -61.08,41.74 -163.07,-1.22 -227.82,-95.96"
         style="fill:#176298;fill-opacity:1;fill-rule:nonzero;stroke:none"
         id="path142" />
      <path
         d="m 8190.48,7252.3 c -55.46,-101.6 24.78,-179.1 57.56,-319 48.1,-205.2 171.25,-242.8 240.94,-174.6 69.69,68.2 18.19,190.7 71.14,277.9 0.17,0.2 0.33,0.5 0.5,0.8 0.15,0.3 0.3,0.5 0.46,0.8 49.49,89.2 181.34,105.2 206.06,199.6 24.72,94.32 -69,182.62 -271.07,122.65 -137.74,-40.85 -244.84,-9.61 -305.59,-108.15"
         style="fill:#176298;fill-opacity:1;fill-rule:nonzero;stroke:none"
         id="path144" />
      <path
         d="m 7976.08,7053.9 c 108.23,11.1 201.81,-36.4 209.01,-106.2 7.2,-69.7 -74.71,-135.4 -182.95,-146.5 -108.24,-11.2 -201.82,36.3 -209.01,106.1 -7.2,69.8 74.7,135.4 182.95,146.6"
         style="fill:#176298;fill-opacity:1;fill-rule:nonzero;stroke:none"
         id="path146" />
      <path
         d="m 8256.54,7536.88 c 43.96,-99.53 131.61,-157.25 195.78,-128.91 64.17,28.34 80.55,132 36.59,231.54 -43.96,99.54 -131.61,157.25 -195.78,128.91 -64.17,-28.33 -80.56,-132 -36.59,-231.54"
         style="fill:#176298;fill-opacity:1;fill-rule:nonzero;stroke:none"
         id="path148" />
      <path
         d="m 7909.79,7380.61 c 107.81,-39.33 174.64,-127.51 149.29,-197.01 -25.35,-69.5 -133.3,-94 -241.1,-54.7 -107.8,39.4 -174.64,127.6 -149.28,197.1 25.35,69.49 133.29,93.94 241.09,54.61"
         style="fill:#176298;fill-opacity:1;fill-rule:nonzero;stroke:none"
         id="path150" />
      <path
         d="m 7939.9,7432.46 c 87.6,-74.12 197.35,-88.44 245.13,-31.96 47.79,56.47 15.52,162.34 -72.07,236.46 -87.6,74.13 -197.36,88.44 -245.14,31.97 -47.79,-56.47 -15.51,-162.34 72.08,-236.47"
         style="fill:#176298;fill-opacity:1;fill-rule:nonzero;stroke:none"
         id="path152" />
      <path
         d="m 16522.3,11801.4 c -84.6,79 -179.7,20.5 -323.3,23.6 -210.7,4.4 -277.8,-105.5 -229,-190 48.7,-84.4 180.1,-65 251.4,-138 0.2,-0.2 0.5,-0.4 0.7,-0.7 0.2,-0.2 0.4,-0.4 0.7,-0.6 74.1,-70.1 56.8,-201.8 142,-249.2 85.2,-47.4 194.1,21.4 186.3,232 -5.4,143.6 51.5,239.6 -28.8,322.9"
         style="fill:#176298;fill-opacity:1;fill-rule:nonzero;stroke:none"
         id="path154" />
      <path
         d="m 16383.4,12058.4 c -16.1,-107.6 -85.4,-186.4 -154.8,-176 -69.3,10.4 -112.5,106 -96.4,213.6 16.1,107.6 85.4,186.5 154.8,176.1 69.3,-10.4 112.5,-106.1 96.4,-213.7"
         style="fill:#176298;fill-opacity:1;fill-rule:nonzero;stroke:none"
         id="path156" />
      <path
         d="m 16781.5,11666.6 c -107.3,-17.8 -185,-88.3 -173.5,-157.5 11.4,-69.2 107.8,-110.9 215.1,-93.1 107.4,17.9 185.1,88.4 173.6,157.6 -11.5,69.2 -107.8,110.9 -215.2,93"
         style="fill:#176298;fill-opacity:1;fill-rule:nonzero;stroke:none"
         id="path158" />
      <path
         d="m 16716.4,12041.4 c -64.9,-94.7 -167,-137.5 -228,-95.6 -61,41.8 -57.8,152.4 7.1,247.1 64.9,94.6 166.9,137.4 228,95.6 61,-41.9 57.8,-152.5 -7.1,-247.1"
         style="fill:#176298;fill-opacity:1;fill-rule:nonzero;stroke:none"
         id="path160" />
      <path
         d="m 16759.1,11999.3 c -93.6,-66.4 -134.7,-169.2 -91.9,-229.5 42.8,-60.3 153.4,-55.4 247,11 93.5,66.4 134.7,169.2 91.9,229.5 -42.8,60.3 -153.4,55.4 -247,-11"
         style="fill:#176298;fill-opacity:1;fill-rule:nonzero;stroke:none"
         id="path162" />
      <path
         d="m 8364.87,16200 c -93.51,68.3 -180.82,-1.2 -323.78,-15.5 -209.74,-20.9 -263.08,-138.1 -204.5,-216.1 58.58,-78 186.67,-42.9 266.25,-106.8 0.25,-0.2 0.49,-0.4 0.74,-0.6 0.25,-0.1 0.51,-0.3 0.76,-0.5 82.02,-60.7 80.67,-193.5 171,-230.3 90.33,-36.8 190.09,44.6 156.96,252.8 -22.58,141.8 22.36,244 -67.43,317"
         style="fill:#176298;fill-opacity:1;fill-rule:nonzero;stroke:none"
         id="path164" />
      <path
         d="m 8196.05,16438.5 c -3.03,-108.8 -62.33,-195.4 -132.45,-193.4 -70.12,1.9 -124.5,91.7 -121.48,200.4 3.03,108.8 62.33,195.4 132.45,193.4 70.12,-1.9 124.51,-91.7 121.48,-200.4"
         style="fill:#176298;fill-opacity:1;fill-rule:nonzero;stroke:none"
         id="path166" />
      <path
         d="m 8638.43,16097.5 c -104.42,-30.7 -173.06,-110.1 -153.32,-177.4 19.74,-67.3 120.39,-97 224.8,-66.4 104.42,30.6 173.06,110 153.32,177.3 -19.74,67.3 -120.39,97.1 -224.8,66.5"
         style="fill:#176298;fill-opacity:1;fill-rule:nonzero;stroke:none"
         id="path168" />
      <path
         d="m 8528.65,16461.6 c -53.03,-101.8 -149.2,-156.5 -214.81,-122.3 -65.6,34.2 -75.79,144.4 -22.75,246.1 53.04,101.8 149.21,156.6 214.81,122.4 65.6,-34.2 75.79,-144.4 22.75,-246.2"
         style="fill:#176298;fill-opacity:1;fill-rule:nonzero;stroke:none"
         id="path170" />
      <path
         d="m 8576.14,16425 c -84.9,-77.2 -113.39,-184.1 -63.62,-238.9 49.76,-54.7 158.93,-36.5 243.84,40.7 84.91,77.2 113.39,184.1 63.63,238.9 -49.77,54.7 -158.94,36.5 -243.85,-40.7"
         style="fill:#176298;fill-opacity:1;fill-rule:nonzero;stroke:none"
         id="path172" />
      <path
         d="m 1107,13069.2 c -66,-95.1 5.5,-180.8 23.16,-323.3 25.91,-209.2 144.34,-259.8 220.92,-199.4 76.58,60.4 38.45,187.7 100.41,268.7 0.19,0.3 0.38,0.5 0.58,0.8 0.18,0.3 0.36,0.5 0.54,0.8 58.74,83.4 191.54,85.2 226.19,176.4 34.66,91.1 -49.1,188.9 -256.41,150.9 -141.32,-25.9 -244.47,16.6 -315.39,-74.9"
         style="fill:#176298;fill-opacity:1;fill-rule:nonzero;stroke:none"
         id="path174" />
      <path
         d="m 872.625,12894.8 c 108.813,-0.5 196.775,-57.7 196.485,-127.9 -0.3,-70.1 -88.739,-126.6 -197.551,-126.1 -108.813,0.4 -196.782,57.6 -196.485,127.8 0.293,70.1 88.739,126.6 197.551,126.2"
         style="fill:#176298;fill-opacity:1;fill-rule:nonzero;stroke:none"
         id="path176" />
      <path
         d="m 1203.06,13345.1 c 33.08,-103.7 114.07,-170.4 180.9,-149.1 66.83,21.3 94.18,122.7 61.11,226.3 -33.09,103.7 -114.08,170.4 -180.91,149.1 -66.82,-21.3 -94.18,-122.6 -61.1,-226.3"
         style="fill:#176298;fill-opacity:1;fill-rule:nonzero;stroke:none"
         id="path178" />
      <path
         d="m 841.613,13226.7 c 102.985,-50.6 160.027,-145.4 127.391,-211.8 -32.633,-66.4 -142.566,-79.2 -245.555,-28.6 -102.984,50.6 -160.015,145.5 -127.39,211.9 32.636,66.4 142.574,79.2 245.554,28.5"
         style="fill:#176298;fill-opacity:1;fill-rule:nonzero;stroke:none"
         id="path180" />
      <path
         d="m 877.086,13275.1 c 79.18,-83.1 186.774,-109 240.324,-58 53.54,51.1 32.76,159.8 -46.42,242.8 -79.185,83.1 -186.779,109 -240.322,58 -53.543,-51 -32.758,-159.8 46.418,-242.8"
         style="fill:#176298;fill-opacity:1;fill-rule:nonzero;stroke:none"
         id="path182" />
      <path
         d="m 6419.86,1420.3 c -75,-88.2 -12.25,-180.5 -8.65,-324.1 5.27,-210.7 118.18,-272.598 200.31,-220.001 82.13,52.602 56.66,183.001 126.27,257.501 0.22,0.3 0.43,0.5 0.65,0.7 0.21,0.3 0.41,0.5 0.61,0.8 66.64,77.2 198.98,66 242.41,153.3 43.42,87.4 -30.34,192.9 -240.39,175.4 -143.18,-12 -241.66,40.4 -321.21,-43.6"
         style="fill:#176298;fill-opacity:1;fill-rule:nonzero;stroke:none"
         id="path184" />
      <path
         d="m 6169.51,1269.7 c 108.25,-11.2 190.18,-76.7 183.01,-146.5 -7.17,-69.8 -100.73,-117.4 -208.97,-106.2 -108.24,11.1 -190.18,76.7 -183.01,146.5 7.17,69.7 100.73,117.3 208.97,106.2"
         style="fill:#176298;fill-opacity:1;fill-rule:nonzero;stroke:none"
         id="path186" />
      <path
         d="m 6542.51,1685.4 c 22.76,-106.4 96.81,-180.8 165.41,-166.1 68.6,14.7 105.76,112.8 83,219.2 -22.76,106.4 -96.81,180.8 -165.41,166.1 -68.6,-14.6 -105.76,-112.8 -83,-219.2"
         style="fill:#176298;fill-opacity:1;fill-rule:nonzero;stroke:none"
         id="path188" />
      <path
         d="m 6171.2,1603.1 c 97.53,-60.5 144.99,-160.5 106,-223.4 -38.98,-62.8 -149.64,-64.8 -247.17,-4.3 -97.52,60.5 -144.98,160.4 -106,223.3 38.98,62.9 149.65,64.8 247.17,4.4"
         style="fill:#176298;fill-opacity:1;fill-rule:nonzero;stroke:none"
         id="path190" />
      <path
         d="m 6211.24,1647.7 c 70.66,-90.4 175.19,-126.8 233.48,-81.2 58.29,45.5 48.27,155.7 -22.38,246.1 -70.66,90.5 -175.19,126.8 -233.48,81.3 -58.3,-45.6 -48.27,-155.8 22.38,-246.2"
         style="fill:#176298;fill-opacity:1;fill-rule:nonzero;stroke:none"
         id="path192" />
      <path
         d="M 1042.12,3642.9 C 927.195,3656.7 884.965,3553.5 767.223,3471.1 594.484,3350.3 605.23,3222 694.457,3182.6 c 89.223,-39.4 183.809,53.8 284.441,37 0.313,0 0.625,-0.1 0.938,-0.1 0.312,-0.1 0.633,-0.1 0.945,-0.2 101.219,-12.8 164.949,-129.4 261.739,-117.3 96.79,12 144.04,131.8 13.39,297.2 -89.04,112.8 -99.75,223.8 -213.79,243.7"
         style="fill:#176298;fill-opacity:1;fill-rule:nonzero;stroke:none"
         id="path194" />
      <path
         d="m 778.305,3768.4 c 50.519,-96.4 41.105,-200.9 -21.028,-233.5 -62.129,-32.5 -153.449,19.2 -203.964,115.6 -50.52,96.3 -41.106,200.9 21.027,233.4 62.129,32.6 153.445,-19.1 203.965,-115.5"
         style="fill:#176298;fill-opacity:1;fill-rule:nonzero;stroke:none"
         id="path196" />
      <path
         d="m 1330.91,3687.1 c -76.14,-77.7 -97.22,-180.5 -47.1,-229.6 50.12,-49.1 152.47,-25.8 228.6,51.9 76.13,77.7 97.21,180.6 47.09,229.6 -50.12,49.1 -152.47,25.9 -228.59,-51.9"
         style="fill:#176298;fill-opacity:1;fill-rule:nonzero;stroke:none"
         id="path198" />
      <path
         d="m 1057.16,3951.2 c 3.46,-114.7 -53.67,-209.5 -127.613,-211.8 -73.942,-2.2 -136.695,89 -140.156,203.7 -3.465,114.7 53.668,209.5 127.609,211.7 73.945,2.2 136.69,-88.9 140.16,-203.6"
         style="fill:#176298;fill-opacity:1;fill-rule:nonzero;stroke:none"
         id="path200" />
      <path
         d="m 1116.48,3942.4 c -36.34,-108.8 -8.92,-216 61.24,-239.5 70.17,-23.4 156.52,45.8 192.86,154.7 36.35,108.8 8.93,216.1 -61.24,239.5 -70.17,23.4 -156.51,-45.8 -192.86,-154.7"
         style="fill:#176298;fill-opacity:1;fill-rule:nonzero;stroke:none"
         id="path202" />
      <path
         d="m 4033.38,4233.1 c -49,104.9 -158.99,86.2 -291.1,142.6 -193.84,82.8 -297.09,5.9 -283.39,-90.7 13.69,-96.6 142.83,-127.6 181.73,-221.9 0.12,-0.3 0.24,-0.6 0.36,-0.9 0.13,-0.3 0.27,-0.6 0.4,-0.9 42.57,-92.7 -22.68,-208.4 38.69,-284.2 61.38,-75.8 188.04,-52.6 259.43,145.7 48.67,135.2 137.29,203 93.88,310.3"
         style="fill:#176298;fill-opacity:1;fill-rule:nonzero;stroke:none"
         id="path204" />
      <path
         d="m 4000.52,4523.4 c -55.12,-93.8 -148.84,-141.1 -209.32,-105.5 -60.48,35.5 -64.82,140.4 -9.71,234.2 55.13,93.8 148.84,141.1 209.32,105.5 60.49,-35.5 64.83,-140.4 9.71,-234.2"
         style="fill:#176298;fill-opacity:1;fill-rule:nonzero;stroke:none"
         id="path206" />
      <path
         d="m 4223.54,4011.3 c -106.24,23.6 -204.66,-12.9 -219.84,-81.4 -15.18,-68.4 58.63,-143.1 164.87,-166.6 106.23,-23.5 204.66,12.9 219.83,81.4 15.18,68.5 -58.63,143.1 -164.86,166.6"
         style="fill:#176298;fill-opacity:1;fill-rule:nonzero;stroke:none"
         id="path208" />
      <path
         d="m 4303.03,4383.2 c -95.54,-63.5 -206.21,-65.1 -247.18,-3.5 -40.97,61.6 3.27,163 98.81,226.6 95.55,63.6 206.21,65.1 247.19,3.5 40.97,-61.6 -3.27,-163 -98.82,-226.6"
         style="fill:#176298;fill-opacity:1;fill-rule:nonzero;stroke:none"
         id="path210" />
      <path
         d="m 4326.98,4328.3 c -111.62,-26.7 -188.16,-106.6 -170.97,-178.6 17.19,-71.9 121.6,-108.7 233.21,-82 111.61,26.7 188.16,106.6 170.96,178.6 -17.19,71.9 -121.6,108.6 -233.2,82"
         style="fill:#176298;fill-opacity:1;fill-rule:nonzero;stroke:none"
         id="path212" />
      <path
         d="m 15333.6,4960.2 c -90.7,71.9 -180.8,6 -324.2,-2.5 -210.4,-12.6 -268.4,-127.5 -213,-207.8 55.5,-80.3 184.9,-50.3 261.8,-117.3 0.2,-0.2 0.5,-0.4 0.7,-0.6 0.3,-0.2 0.5,-0.4 0.8,-0.6 79.5,-64 72.8,-196.6 161.6,-237 88.8,-40.4 191.7,37 167,246.3 -16.9,142.7 32.1,242.9 -54.7,319.5"
         style="fill:#176298;fill-opacity:1;fill-rule:nonzero;stroke:none"
         id="path214" />
      <path
         d="m 15174.4,5205.2 c -7.4,-108.5 -70.1,-192.7 -140.1,-187.9 -69.9,4.7 -120.7,96.6 -113.3,205.1 7.4,108.6 70.1,192.8 140.1,188 70,-4.8 120.7,-96.6 113.3,-205.2"
         style="fill:#176298;fill-opacity:1;fill-rule:nonzero;stroke:none"
         id="path216" />
      <path
         d="m 15602.8,4846.8 c -105.6,-26.4 -177.3,-103 -160.3,-171 17,-68.1 116.4,-101.8 222,-75.4 105.5,26.4 177.3,103 160.3,171 -17.1,68.1 -116.4,101.8 -222,75.4"
         style="fill:#176298;fill-opacity:1;fill-rule:nonzero;stroke:none"
         id="path218" />
      <path
         d="m 15507.7,5215 c -57.1,-99.5 -155.4,-150.4 -219.5,-113.6 -64.2,36.8 -70,147.3 -12.9,246.9 57,99.5 155.3,150.4 219.5,113.6 64.2,-36.8 70,-147.3 12.9,-246.9"
         style="fill:#176298;fill-opacity:1;fill-rule:nonzero;stroke:none"
         id="path220" />
      <path
         d="m 15553.7,5176.6 c -88,-73.8 -120.7,-179.5 -73.2,-236.2 47.6,-56.7 157.4,-42.8 245.3,30.9 87.9,73.7 120.7,179.5 73.1,236.1 -47.5,56.7 -157.3,42.9 -245.2,-30.8"
         style="fill:#176298;fill-opacity:1;fill-rule:nonzero;stroke:none"
         id="path222" />
      <path
         d="m 23688.4,10333.2 c -45.2,106.6 -155.8,91.9 -285.8,153.1 -190.7,89.7 -296.7,16.6 -286.5,-80.4 10.2,-97 138.2,-132.7 173.6,-228.4 0.1,-0.3 0.2,-0.6 0.4,-0.9 0.1,-0.3 0.2,-0.5 0.3,-0.8 39.2,-94.2 -30.2,-207.5 28.4,-285.48 58.6,-77.97 186,-59.37 264.5,136.28 53.6,133.3 144.6,197.8 105.1,306.6"
         style="fill:#176298;fill-opacity:1;fill-rule:nonzero;stroke:none"
         id="path224" />
      <path
         d="m 23666,10624.5 c -58.5,-91.7 -153.8,-135.6 -213,-97.9 -59.1,37.7 -59.7,142.7 -1.2,234.5 58.5,91.7 153.8,135.5 213,97.8 59.1,-37.7 59.7,-142.6 1.2,-234.4"
         style="fill:#176298;fill-opacity:1;fill-rule:nonzero;stroke:none"
         id="path226" />
      <path
         d="m 23870.4,10104.7 c -105.3,27.4 -205,-5.5 -222.6,-73.4 -17.7,-67.86 53.4,-145.08 158.7,-172.45 105.3,-27.37 205,5.48 222.6,73.37 17.7,67.88 -53.4,145.08 -158.7,172.48"
         style="fill:#176298;fill-opacity:1;fill-rule:nonzero;stroke:none"
         id="path228" />
      <path
         d="m 23963.3,10473.5 c -97.8,-60 -208.5,-57.6 -247.2,5.4 -38.7,63 9.2,162.8 107,222.9 97.7,60.1 208.4,57.6 247.1,-5.4 38.7,-63 -9.2,-162.8 -106.9,-222.9"
         style="fill:#176298;fill-opacity:1;fill-rule:nonzero;stroke:none"
         id="path230" />
      <path
         d="m 23985.2,10417.7 c -112.5,-22.6 -191.9,-99.7 -177.3,-172.2 14.6,-72.6 117.6,-113 230.1,-90.4 112.5,22.6 191.9,99.7 177.3,172.2 -14.6,72.6 -117.6,113 -230.1,90.4"
         style="fill:#176298;fill-opacity:1;fill-rule:nonzero;stroke:none"
         id="path232" />
      <path
         d="m 9469.61,1442.6 c 36.44,90.3 123.15,-5 48.44,-60.7 -114.34,-85.2 -237.27,82 -149.38,194.3 103.05,131.6 325.39,91.7 376.7,-89.2 80.98,-285.6 -311.3,-439.3 -548.81,-195.4 -290.02,297.9 126.1,682.3 406.69,547 60.4,-29.2 29.41,-87.1 -24.46,-63.9 -109.65,47.5 -260.55,-11.6 -342.74,-104.2 -157.9,-178 24.32,-433.8 252.41,-423 148.92,7 224.95,126.2 175.65,238.1 -42.77,97 -151.87,115.5 -218.52,61.9 -53.19,-42.7 -24.81,-128.3 24.02,-104.9"
         style="fill:#176298;fill-opacity:1;fill-rule:nonzero;stroke:none"
         id="path234" />
      <path
         d="m 22598.3,1242.5 c -85.5,46.6 19.2,121.7 65.9,41 71.4,-123.4 -108.9,-226.1 -210.3,-125.8 -118.8,117.6 -53.4,333.8 132.3,363.8 293,47.3 400.2,-360.1 130.4,-567.801 -329.5,-253.5 -663,204.401 -496.1,467.401 35.9,56.6 89.9,19.1 60.5,-31.7 -59.8,-103.4 -18.6,-260.1 63.9,-352.5 158.4,-177.502 433.6,-26.1 449.4,201.7 10.2,148.7 -99.3,238 -216.1,202 -101.4,-31.2 -132.4,-137.4 -86.9,-209.8 36.3,-57.8 124.6,-39.6 107,11.7"
         style="fill:#176298;fill-opacity:1;fill-rule:nonzero;stroke:none"
         id="path236" />
      <path
         d="m 5424.2,16113.2 c -46.45,85.6 82.24,91.8 77.65,-1.2 -7.05,-142.5 -214.21,-130.9 -244.9,8.4 -35.98,163.3 136.32,309.3 308.52,233.8 271.83,-119.3 140.7,-519.7 -198.58,-547.7 -414.32,-34.1 -446,531.5 -163.05,661.8 60.92,28.1 85.92,-32.7 33.66,-59.5 -106.35,-54.4 -156.82,-208.4 -137.69,-330.7 36.75,-235 350.05,-257.3 486.89,-74.5 89.34,119.3 45.8,253.8 -71.84,287 -102.06,28.8 -185.76,-43.6 -186.87,-129.1 -0.89,-68.2 83.18,-100.8 96.21,-48.3"
         style="fill:#176298;fill-opacity:1;fill-rule:nonzero;stroke:none"
         id="path238" />
      <path
         d="m 19193,11260.9 c 52.4,82.1 120.2,-27.5 36.5,-68.6 -128,-62.8 -218.2,124.1 -111.2,218.4 125.4,110.5 336.6,30.5 353.9,-156.7 27.3,-295.6 -386.5,-374.8 -575.3,-91.5 -230.5,345.9 249,647.6 500,463.1 54.1,-39.7 13,-91 -35.7,-58.2 -99.1,66.7 -258.3,36.3 -356,-39.7 -187.9,-146 -55.6,-430.9 170.6,-462.1 147.7,-20.3 244.3,82.9 216.3,201.9 -24.3,103.2 -128.1,141.4 -203.5,100.9 -60.1,-32.2 -47.9,-121.6 4.4,-107.5"
         style="fill:#176298;fill-opacity:1;fill-rule:nonzero;stroke:none"
         id="path240" />
      <path
         d="m 14786.1,8916.57 c -97,8.59 -31.1,119.28 44,64 114.8,-84.61 -9.4,-250.85 -142.4,-199.43 -156,60.28 -182.5,284.63 -24.3,386.34 249.7,160.58 510.8,-170.04 346.6,-468.22 -200.6,-364.13 -689.5,-77.85 -641.6,229.97 10.3,66.27 74.8,53.49 68.1,-4.83 -13.4,-118.71 87,-245.89 199.5,-297.58 216.2,-99.3 408,149.47 331.3,364.55 -50.1,140.43 -186.2,178.49 -278.9,98.79 -80.4,-69.15 -66.3,-178.91 4.3,-227.1 56.4,-38.45 130,13.59 93.4,53.51"
         style="fill:#176298;fill-opacity:1;fill-rule:nonzero;stroke:none"
         id="path242" />
      <path
         d="m 13019,6634 c 12.9,96.5 120.5,25.8 62,-46.7 -89.5,-111 -250.2,20.3 -193,151 67.1,153.1 292.4,169.7 387.1,7.3 149.4,-256.5 -192.3,-502.9 -483,-325.7 -355,216.4 -47.5,692.1 257.9,630.9 65.7,-13.2 50.1,-77.1 -7.8,-67.9 -118,18.6 -249.5,-76.1 -306.1,-186.3 -108.7,-211.6 131.4,-414.1 349.7,-346.9 142.5,43.9 186.5,178.2 110.9,274.3 -65.5,83.3 -175.8,74.1 -227,5.7 -40.9,-54.7 7.8,-130.5 49.3,-95.7"
         style="fill:#176298;fill-opacity:1;fill-rule:nonzero;stroke:none"
         id="path244" />
      <path
         d="m 1088.39,6451.6 c -7.7,97.1 112.43,50.5 70.44,-32.6 -64.27,-127.3 -248.889,-32.6 -220.389,107.1 33.418,163.8 250.199,227.3 376.879,88.4 199.98,-219.4 -82.44,-532.1 -403.84,-419.9 -392.496,137.1 -191.777,666.8 119.71,671 67.06,0.9 65.22,-64.8 6.61,-68 -119.284,-6.5 -227.933,-126.8 -260.128,-246.4 -61.848,-229.7 215.426,-377.2 414.698,-265.7 130.11,72.8 144.92,213.3 50.89,291.4 -81.59,67.7 -187.47,35.6 -223.2,-42.1 -28.521,-62 35.08,-125.9 68.33,-83.2"
         style="fill:#176298;fill-opacity:1;fill-rule:nonzero;stroke:none"
         id="path246" />
      <path
         d="m 20308.9,16250.1 c -28.1,93.2 99.2,73.2 75.8,-17 -35.8,-138.1 -236.3,-84.7 -238.1,57.9 -2.1,167.2 196.2,275.3 349.5,166.3 242,-171.9 32.4,-537.4 -305.5,-495.9 -412.7,50.5 -329,610.8 -25.5,681 65.4,15.2 77.5,-49.5 20.9,-65 -115.1,-31.7 -195.8,-172.3 -201.9,-296 -11.7,-237.6 290.6,-322.9 461.7,-171.7 111.7,98.8 96.3,239.3 -12.1,295.6 -94.2,48.9 -190.8,-5 -209.2,-88.5 -14.7,-66.6 61,-115.6 84.4,-66.7"
         style="fill:#176298;fill-opacity:1;fill-rule:nonzero;stroke:none"
         id="path248" />
      <path
         d="m 7007.41,13744 c -33.43,91.5 94.79,78.8 76.63,-12.6 -27.78,-139.8 -231.04,-98.1 -241.04,44.2 -11.73,166.7 180.08,286.1 339.39,186.1 251.47,-157.7 63.22,-534.6 -276.5,-512.7 -414.87,26.8 -363.52,591 -64.57,678.5 64.37,18.9 80.21,-44.9 24.61,-63.7 -113.17,-38.3 -185.6,-183.3 -184.56,-307.1 2,-237.9 308.69,-305.7 470.77,-144.9 105.83,105 82.41,244.5 -29.11,294.4 -96.76,43.4 -190.14,-15.9 -203.74,-100.4 -10.85,-67.3 67.55,-111.8 88.12,-61.8"
         style="fill:#176298;fill-opacity:1;fill-rule:nonzero;stroke:none"
         id="path250" />
      <path
         d="m 3330.7,11231.8 c -2.76,97.4 114.85,44.8 68.69,-36.2 -70.65,-123.8 -250.22,-19.9 -214.66,118.2 41.7,161.9 261.43,214.4 380.88,69.1 188.57,-229.2 -109.36,-527.1 -424.64,-398.7 -385.03,156.7 -157.66,675.6 153.64,664 67.02,-2.5 61.84,-68.1 3.14,-68.3 -119.46,-0.5 -234.07,-115 -272.3,-232.8 -73.44,-226.3 195.97,-387.7 400.66,-286.5 133.63,66.1 155.58,205.7 65.62,288.5 -78.04,71.8 -185.41,45 -225.05,-30.7 -31.62,-60.5 28.64,-127.5 64.02,-86.6"
         style="fill:#176298;fill-opacity:1;fill-rule:nonzero;stroke:none"
         id="path252" />
      <path
         d="m 3528.26,1280.3 c -97.35,-1.9 -43.75,115.3 36.8,68.4 123.26,-71.7 17.77,-250.4 -120.02,-213.6 -161.55,43.1 -212.11,263.2 -65.86,381.4 230.88,186.6 526.22,-113.8 395.12,-428 -160.09,-383.699 -676.97,-151.898 -662.68,159.3 3.09,67 68.58,61.3 68.3,2.6 -0.57,-119.5 113,-235.1 230.46,-274.298 225.63,-75.403 389.39,192.598 289.92,398.198 -64.93,134.2 -204.4,157.3 -287.9,68.1 -72.45,-77.5 -46.64,-185.1 28.78,-225.3 60.19,-32.2 127.76,27.5 87.08,63.2"
         style="fill:#176298;fill-opacity:1;fill-rule:nonzero;stroke:none"
         id="path254" />
      <path
         d="m 14679.7,16765.5 c -164.7,-147.9 -329.4,-296 -493.9,-444.1 -14.5,-13 631.2,-42.2 644.4,-41.5 -3.6,15.7 -138.5,496.4 -150.5,485.6 z m -12.4,93.3 c 77,59.2 57.5,50.6 247.7,-590.9 10.4,-35.3 9.3,-64.6 -27.3,-68.3 -11.6,-1.2 -800.6,40.9 -812.1,43.4 -116.1,25 48,118.9 591.7,615.8"
         style="fill:#176298;fill-opacity:1;fill-rule:nonzero;stroke:none"
         id="path256" />
      <path
         d="m 2752.01,15831.3 c 139.11,-172.3 278.35,-344.4 417.68,-516.5 12.27,-15.1 75.18,628.1 75.13,641.4 -15.87,-2.8 -502.95,-112.4 -492.81,-124.9 z m -93.81,-7.5 c -55.11,79.9 -47.55,60 603.01,216.4 35.78,8.6 65.01,6 66.79,-30.8 0.56,-11.7 -82.68,-797.4 -85.75,-808.7 -31.05,-114.6 -116.28,54.2 -584.05,623.1"
         style="fill:#176298;fill-opacity:1;fill-rule:nonzero;stroke:none"
         id="path258" />
      <path
         d="m 21345.2,4585.2 c 119.7,-186.3 239.6,-372.4 359.6,-558.5 10.6,-16.4 142.4,616.4 143.8,629.6 -16.1,-1.1 -512.1,-57.6 -503.4,-71.1 z m -94.1,2.6 c -46.2,85.4 -40.8,64.8 622.8,150.2 36.5,4.7 65.3,-1 63.1,-37.8 -0.7,-11.7 -168,-783.8 -172.3,-794.7 -43.2,-110.7 -109.8,66.3 -513.6,682.3"
         style="fill:#176298;fill-opacity:1;fill-rule:nonzero;stroke:none"
         id="path260" />
      <path
         d="m 18907,14288.9 c 16.7,-220.8 33.5,-441.6 50.5,-662.3 1.5,-19.5 418.6,474.2 426.1,485.2 -14.7,6.7 -477.8,193.2 -476.6,177.1 z m -81.5,47.1 c 0.1,97.1 -5,76.4 619.3,-164.4 34.3,-13.2 56.9,-32 37.5,-63.2 -6.2,-10 -521,-609.4 -529.9,-617 -90.7,-76.7 -65,110.7 -126.9,844.6"
         style="fill:#176298;fill-opacity:1;fill-rule:nonzero;stroke:none"
         id="path262" />
      <path
         d="m 10241.4,8646.97 c -14.3,-220.94 -28.4,-441.91 -42.4,-662.87 -1.3,-19.46 480.6,411.27 489.6,421.07 -13.6,8.67 -446.2,257.89 -447.2,241.8 z m -74.2,57.99 c 13.6,96.17 5.7,76.37 590.3,-249.08 32.2,-17.9 51.9,-39.61 28.3,-67.86 -7.5,-9 -600.8,-530.78 -610.7,-537.03 -100.5,-63.31 -48.9,118.6 -7.9,853.97"
         style="fill:#176298;fill-opacity:1;fill-rule:nonzero;stroke:none"
         id="path264" />
      <path
         d="m 385.43,16080.6 c 180.609,-128.1 361.297,-256.1 542.066,-383.9 15.918,-11.3 -97.933,624.9 -101.57,637.7 -14.52,-7 -453.649,-244.5 -440.496,-253.8 z m -88.258,-32.7 c -74.727,62 -62.047,44.9 521.75,371.8 32.117,18 60.949,23.4 72.629,-11.5 3.715,-11.1 136.609,-790 136.739,-801.7 1.17,-118.7 -126.618,20.6 -731.118,441.4"
         style="fill:#176298;fill-opacity:1;fill-rule:nonzero;stroke:none"
         id="path266" />
      <path
         d="m 8932.93,13515.2 c 154.33,-158.8 308.77,-317.4 463.31,-476 13.61,-14 17.23,632.4 15.96,645.6 -15.54,-4.3 -490.51,-158.1 -479.27,-169.6 z m -92.72,-16.1 c -62.22,74.6 -52.87,55.4 580.61,270.8 34.84,11.9 64.18,12 69.33,-24.5 1.63,-11.6 -9.16,-801.6 -11.18,-813.2 -20.41,-116.9 -120.76,43.3 -638.76,566.9"
         style="fill:#176298;fill-opacity:1;fill-rule:nonzero;stroke:none"
         id="path268" />
      <path
         d="m 17381.4,1734.5 c 8.9,-221.2 18.1,-442.5 27.3,-663.7 0.8,-19.5 434.9,459.4 442.8,470.1 -14.5,7.2 -470.8,209.7 -470.1,193.6 z m -79.8,49.9 c 3.4,97 -2.4,76.5 613.1,-185.9 33.9,-14.4 55.8,-33.9 35.3,-64.5 -6.5,-9.7 -541.9,-590.801 -551.1,-598.098 -93.3,-73.402 -61,112.898 -97.3,848.498"
         style="fill:#176298;fill-opacity:1;fill-rule:nonzero;stroke:none"
         id="path270" />
      <path
         d="m 13770.2,11707 c 134.5,-175.9 269.1,-351.6 403.8,-527.3 11.9,-15.5 91.8,625.8 92.1,639.1 -15.9,-2.4 -505.7,-99 -495.9,-111.8 z m -94,-5 c -53,81.4 -45.9,61.2 608.6,200.3 36,7.7 65.1,4.3 65.9,-32.5 0.2,-11.7 -103.8,-794.9 -107.2,-806.1 -34.1,-113.8 -114.8,57.2 -567.3,638.3"
         style="fill:#176298;fill-opacity:1;fill-rule:nonzero;stroke:none"
         id="path272" />
      <path
         d="m 24917,1487.2 c -35.7,-218.5 -71.2,-437 -106.6,-655.598 -3.1,-19.301 518.3,362.598 528.2,371.498 -12.7,10 -419,300 -421.6,284.1 z m -68.1,64.9 c 22.8,94.4 13,75.5 563.2,-305.2 30.3,-20.9 47.9,-44.5 21.6,-70.3 -8.3,-8.2 -649.5,-469.897 -660,-475.198 -106.1,-53.203 -37.1,122.801 75.2,850.698"
         style="fill:#176298;fill-opacity:1;fill-rule:nonzero;stroke:none"
         id="path274" />
      <path
         d="m 4955.97,13054.6 c -29.73,-219.4 -59.33,-438.8 -88.79,-658.3 -2.6,-19.3 508.31,376.6 517.93,385.7 -12.95,9.6 -426.98,288.6 -429.14,272.6 z m -69.86,63 c 20.31,95 10.99,75.8 571.34,-289.9 30.82,-20.1 48.98,-43.1 23.47,-69.6 -8.13,-8.5 -636.57,-487.3 -646.9,-492.9 -104.66,-56.1 -40.44,121.8 52.09,852.4"
         style="fill:#176298;fill-opacity:1;fill-rule:nonzero;stroke:none"
         id="path276" />
      <path
         d="m 22761.5,6946.5 c 22.8,25.4 43.9,5.1 59.3,-7.7 222.5,-185 -2.7,281 198.6,310.1 67.8,9.8 165.5,-15 176.9,56.1 9.3,57.1 -23.2,130.74 -4.5,208.47 22.9,95.18 134.2,66.76 221.8,93.63 75.6,23.21 4.3,145.67 22.1,199.15 9.8,29.45 43.4,35.26 62.8,11.07 11.9,-14.81 16.7,-56.9 26,-137.39 17.1,-148.29 -107.9,-152.89 -206.1,-165.7 -62.5,-8.15 -62,-3.73 -48.5,-127.82 3.7,-33.32 9,-63.81 1.1,-100.31 -15.5,-72.1 -76.3,-107.4 -150,-110.3 -86,-3.4 -112.9,13.3 -116.6,-52.8 -5.6,-100.2 21.6,-185.3 -21.8,-250.2 -80.7,-120.9 -263.5,26.4 -221.1,73.7"
         style="fill:#176298;fill-opacity:1;fill-rule:nonzero;stroke:none"
         id="path278" />
      <path
         d="m 24045.5,3263.7 c 28.1,19.5 43.9,-5.2 55.9,-21.1 174.1,-231.2 61.9,274 264.6,256.2 68.1,-6.1 157.5,-52.7 185,13.9 22.1,53.5 7.5,132.6 43.5,204 44.1,87.4 145.9,34.1 237.3,40.2 79,5.2 37.7,140.8 67.3,188.7 16.3,26.4 50.3,24.4 63.7,-3.6 8.2,-17.2 3.1,-59.2 -6.3,-139.7 -17.4,-148.3 -140.1,-124 -238.7,-114 -62.6,6.5 -61.1,10.7 -76.4,-113.2 -4.1,-33.3 -6,-64.2 -22,-97.9 -31.7,-66.7 -99,-87 -171.4,-72.9 -84.4,16.5 -106.8,38.9 -125.6,-24.6 -28.4,-96.2 -21.5,-185.3 -78.6,-238.5 -106.4,-99.1 -250.5,86.2 -198.3,122.5"
         style="fill:#176298;fill-opacity:1;fill-rule:nonzero;stroke:none"
         id="path280" />
      <path
         d="m 5076.09,6304.4 c 33.64,5.7 37.52,-23.3 41.6,-42.8 59.27,-283.4 172.55,221.7 348.36,119.3 59.14,-34.4 120.23,-114.6 173.45,-66 42.73,39 63.11,116.8 126.06,166.1 77.08,60.3 146.6,-31.1 231.89,-64.5 73.72,-28.9 93.98,111.4 141.17,142.2 26,16.9 55.86,0.7 56.08,-30.4 0.12,-19 -22.34,-54.9 -65.09,-123.7 -78.76,-126.8 -179.54,-52.7 -264.45,-1.7 -54,32.5 -50.88,35.6 -117.4,-70 -17.86,-28.4 -32.67,-55.6 -61.52,-79.3 -57.02,-46.8 -126.57,-36.6 -186.1,6.9 -69.38,50.8 -80.16,80.6 -124.14,31.2 -66.65,-75 -98.27,-158.6 -172.59,-182.5 -138.36,-44.5 -189.97,184.6 -127.32,195.2"
         style="fill:#176298;fill-opacity:1;fill-rule:nonzero;stroke:none"
         id="path282" />
      <path
         d="m 23006.3,12301.2 c 16,30.1 41.3,15.5 59.3,6.8 260.6,-126.1 -70.3,272 118.1,348.8 63.4,25.8 164.2,25.2 158.2,97 -4.8,57.7 -54,121.3 -54.6,201.3 -0.7,97.8 114.2,97.1 192.7,144.2 67.9,40.8 -30.9,142.5 -26.5,198.7 2.5,30.9 33.6,44.6 58.3,25.8 15.2,-11.5 29.9,-51.2 58.3,-127.1 52.4,-139.8 -67.9,-174.3 -160.1,-210.4 -58.7,-23 -59.3,-18.6 -16.2,-135.7 11.5,-31.5 24,-59.9 25.2,-97.2 2.3,-73.7 -48.3,-122.6 -119.1,-143.1 -82.6,-24 -112.8,-14.3 -100.5,-79.4 18.7,-98.5 65.7,-174.6 39.2,-248 -49.3,-136.8 -262.2,-37.8 -232.3,18.3"
         style="fill:#176298;fill-opacity:1;fill-rule:nonzero;stroke:none"
         id="path284" />
      <path
         d="m 18704.1,8242.04 c 34.1,-0.32 32.8,-29.59 33.4,-49.52 8.3,-289.34 209,187.73 364,55.92 52.1,-44.35 98,-134.06 159,-95.66 49,30.84 82.8,103.85 153.4,141.23 86.6,45.77 138.8,-56.54 216.9,-104.48 67.4,-41.44 112.2,93.02 164.1,115.02 28.5,12.12 55.1,-9.2 49.8,-39.79 -3.2,-18.74 -31.7,-50.12 -85.9,-110.31 -100,-110.88 -186.1,-20.14 -260.6,45.1 -47.4,41.5 -43.8,44.06 -127.9,-48.16 -22.6,-24.76 -42,-48.93 -74.6,-67.15 -64.4,-36.01 -131.1,-13.73 -182,39.69 -59.3,62.26 -64.6,93.51 -116.6,52.59 -78.9,-62.03 -124.8,-138.76 -202.2,-149.12 -144,-19.29 -154.3,215.24 -90.8,214.64"
         style="fill:#176298;fill-opacity:1;fill-rule:nonzero;stroke:none"
         id="path286" />
      <path
         d="m 21038.2,10733.9 c 19.1,-28.2 -5.7,-43.8 -21.8,-55.6 -233.4,-171.2 273.3,-65.2 252.9,-267.7 -6.9,-68 -54.6,-156.8 11.7,-185.2 53.2,-22.7 132.5,-9.1 203.4,-46 86.8,-45.1 32.3,-146.3 37.3,-237.75 4.2,-79.06 140.3,-39.43 187.9,-69.63 26.2,-16.64 23.7,-50.56 -4.5,-63.61 -17.2,-7.99 -59.2,-2.41 -139.6,8.01 -148,19.19 -122.3,141.61 -111,240.08 7.2,62.6 11.4,61 -112.3,77.8 -33.2,4.5 -64.1,6.8 -97.6,23.2 -66.3,32.5 -85.8,100 -70.8,172.3 17.5,84.2 40.2,106.3 -23,125.9 -95.9,29.6 -185.1,23.7 -237.6,81.5 -97.7,107.6 89.4,249.4 125,196.7"
         style="fill:#176298;fill-opacity:1;fill-rule:nonzero;stroke:none"
         id="path288" />
      <path
         d="m 16553,7341.67 c 21.2,-26.77 -2.4,-44.07 -17.6,-57.07 -220,-188.1 277.4,-44.8 272.1,-248.1 -1.8,-68.4 -42.7,-160.5 25.4,-183.9 54.8,-18.7 132.8,0.8 206.3,-30.7 90,-38.6 43.2,-143.5 54.9,-234.3 10.1,-78.6 142.8,-28.9 192.5,-55.5 27.4,-14.6 27.5,-48.7 0.3,-63.8 -16.6,-9.2 -58.9,-6.8 -139.8,-2.4 -149,8.2 -132.5,132.2 -128.5,231.1 2.5,63 6.8,61.8 -117.8,69.3 -33.5,2.1 -64.5,2 -99.1,15.9 -68.5,27.5 -93,93.4 -83.4,166.5 11.2,85.3 32.2,109.1 -32.3,123.9 -97.8,22.4 -186.4,9.9 -243,63.6 -105.5,100 70.5,255.3 110,205.47"
         style="fill:#176298;fill-opacity:1;fill-rule:nonzero;stroke:none"
         id="path290" />
      <path
         d="m 18447.3,4371.6 c 18.1,28.9 42.4,12.4 59.7,2.4 250.7,-144.5 -50.4,276.4 143.1,339.4 65,21.1 165.5,13.2 164.8,85.3 -0.6,57.8 -45.1,124.9 -39.9,204.7 6.3,97.7 120.9,88.6 202.6,129.9 70.6,35.7 -20.5,144.3 -12,200 4.7,30.7 36.7,42.1 60,21.6 14.3,-12.6 26.1,-53.2 48.9,-131 42.1,-143.2 -80.3,-169 -174.9,-198.3 -60.2,-18.6 -60.5,-14.2 -26,-134.2 9.2,-32.2 19.6,-61.4 18.1,-98.7 -3.1,-73.7 -57,-118.8 -129.2,-134.1 -84.1,-17.9 -113.5,-6.1 -105.9,-71.9 11.5,-99.6 52.8,-178.9 21.1,-250.2 -59.1,-132.8 -264.2,-18.7 -230.4,35.1"
         style="fill:#176298;fill-opacity:1;fill-rule:nonzero;stroke:none"
         id="path292" />
      <path
         d="m 14253.4,715.5 c 30.3,15.699 42.8,-10.801 52.6,-28.199 142.5,-252 97.2,263.597 295.7,219.402 66.8,-14.805 149.4,-72.703 185.3,-10.203 28.9,50.102 24.7,130.4 69.8,196.5 55.1,80.9 149.1,14.8 240.5,8.9 79,-5.2 55.7,134.6 91.4,178.3 19.6,24.1 53,17.6 62.6,-11.9 5.9,-18.1 -4.6,-59.1 -24.5,-137.7 -36.5,-144.702 -155.1,-104.7 -251.5,-81.8 -61.3,14.5 -59.2,18.5 -90.6,-102.3 -8.4,-32.5 -14.2,-62.898 -34.5,-94.199 -40.2,-61.899 -109.5,-73.399 -179.5,-49.899 -81.5,27.297 -100.8,52.5 -127.7,-8.004 -40.7,-91.699 -45.5,-180.996 -109.1,-226.199 -118.3,-84.398 -237,118.203 -180.5,147.301"
         style="fill:#176298;fill-opacity:1;fill-rule:nonzero;stroke:none"
         id="path294" />
      <path
         d="m 17128.7,16704.3 c 33.7,-5.2 28.2,-34 25.9,-53.8 -33.2,-287.5 233.8,155.9 368.3,3.2 45.2,-51.3 77.8,-146.7 143.7,-117.4 52.8,23.5 96.8,90.9 172,117.8 92.2,32.9 129.3,-75.8 199.7,-134.5 60.8,-50.7 124.3,76 178.8,90.3 30.1,7.9 53.3,-17 43.7,-46.5 -5.9,-18.1 -38.6,-45 -100.9,-96.8 -114.8,-95.5 -187,6.7 -251.4,81.9 -41,47.9 -37,49.9 -133.5,-29.3 -25.9,-21.3 -48.6,-42.4 -83.4,-55.8 -68.9,-26.4 -131.7,5.2 -174.4,65.4 -49.8,70.1 -50.6,101.8 -108,68.7 -86.9,-50.1 -143.3,-119.4 -221.4,-118.6 -145.3,1.5 -121.9,235.1 -59.1,225.4"
         style="fill:#176298;fill-opacity:1;fill-rule:nonzero;stroke:none"
         id="path296" />
      <path
         d="m 22102.6,16469 c 34,-1.4 31.8,-30.6 31.7,-50.6 -1.4,-289.4 215.1,180.7 365.6,43.8 50.6,-46 93.6,-137.2 155.8,-100.9 49.9,29.2 86.1,101.1 158,136.1 88,42.9 136.8,-61.1 213.3,-111.6 66,-43.7 115.2,89.2 167.8,109.5 28.9,11.1 54.7,-11.1 48.4,-41.5 -3.8,-18.6 -33.3,-49 -89.5,-107.3 -103.6,-107.6 -186.6,-14 -258.9,53.7 -46.1,43 -42.3,45.5 -129.5,-43.9 -23.4,-24 -43.6,-47.5 -76.7,-64.6 -65.6,-33.9 -131.5,-9.4 -180.6,45.7 -57.2,64.2 -61.5,95.6 -114.8,56.4 -80.9,-59.4 -129.3,-134.5 -207,-142.3 -144.6,-14.5 -147.1,220.2 -83.6,217.5"
         style="fill:#176298;fill-opacity:1;fill-rule:nonzero;stroke:none"
         id="path298" />
      <path
         d="m 25207.4,16633.4 c -28.8,-22.2 -48.3,-197.9 -114.1,-170 -67.2,28.6 49.4,172.9 43.9,219.5 -138.6,98.5 -202.3,112.8 -172.9,159.7 30,48 75.7,-9.5 202.1,-84.6 18.5,7.8 64.8,168.6 89.3,189.6 27.7,23.6 64.9,-0.5 60.4,-33.7 -1.7,-13 -4.1,-15.8 -68.8,-175.4 -11.1,-27.4 -13.7,-25.5 7,-39.1 131.8,-86.8 139,-89.7 149.5,-100.9 25.2,-26.9 -3.1,-71.3 -37.5,-60.9 -28.4,8.6 -141.7,96.5 -158.9,95.8"
         style="fill:#176298;fill-opacity:1;fill-rule:nonzero;stroke:none"
         id="path300" />
      <path
         d="m 17357.5,9448.56 c -8.9,-35.23 84.5,-185.46 15.5,-204.16 -70.5,-19.12 -68.1,166.42 -101.3,199.55 -169.8,-8.28 -228.7,-36.52 -234.6,18.49 -6.1,56.37 65.3,39.38 211.1,58.58 9.8,17.61 -53.4,172.57 -47.1,204.21 7.1,35.76 51.3,39.79 68.3,10.92 6.7,-11.29 6.5,-14.9 54.4,-180.42 8.2,-28.37 5,-28.49 29.7,-26.39 157.3,13.37 164.8,15.58 179.9,13.28 36.4,-5.55 41.7,-57.94 8.2,-71.01 -27.6,-10.8 -171,-11.92 -184.1,-23.05"
         style="fill:#176298;fill-opacity:1;fill-rule:nonzero;stroke:none"
         id="path302" />
      <path
         d="m 12766.3,3222.3 c -19.8,-30.4 19.6,-202.8 -51.7,-198.1 -72.9,4.9 -10.3,179.5 -30.9,221.7 -163.3,47.4 -228.1,39.8 -215.8,93.8 12.5,55.3 74.6,16 218.6,-13.3 15,13.5 5.7,180.6 22,208.4 18.3,31.5 61.4,20.9 68.1,-11.9 2.6,-12.8 1.3,-16.2 -7.2,-188.3 -1.5,-29.5 -4.6,-28.5 19.5,-34.6 153,-38.5 160.8,-38.9 174.3,-45.9 32.7,-17.1 20.6,-68.4 -15.2,-69.9 -29.7,-1.2 -165.7,44.4 -181.7,38.1"
         style="fill:#176298;fill-opacity:1;fill-rule:nonzero;stroke:none"
         id="path304" />
      <path
         d="m 15481.4,2799.3 c -33.4,14.2 -196.3,-54.8 -204.1,16.3 -8,72.6 175,41.5 212.8,69.2 18.1,169 -0.7,231.6 54.6,228.9 56.6,-2.7 28.8,-70.6 25.2,-217.6 15.9,-12.4 178.8,26 209.1,14.9 34.2,-12.6 31.3,-56.8 0.2,-69.2 -12.2,-4.8 -15.8,-4.1 -186.7,-25.8 -29.3,-3.7 -28.9,-0.5 -30.7,-25.2 -11.1,-157.5 -10,-165.2 -14.6,-179.8 -11.2,-35.1 -63.7,-32.2 -71.5,2.8 -6.4,29 14.7,170.8 5.7,185.5"
         style="fill:#176298;fill-opacity:1;fill-rule:nonzero;stroke:none"
         id="path306" />
      <path
         d="m 7448.53,4039.1 c -32.59,16.1 -199.05,-43.7 -202.87,27.6 -3.91,73 177,31.7 216.35,57.2 27.49,167.8 12.22,231.3 67.26,225.6 56.38,-5.9 24.8,-72.2 13.02,-218.7 15.16,-13.3 179.93,16 209.55,3.2 33.46,-14.5 28.13,-58.5 -3.65,-69.1 -12.43,-4.1 -15.93,-3.3 -187.81,-15.4 -29.46,-2.1 -28.91,1.1 -32.03,-23.5 -19.89,-156.5 -19.3,-164.3 -24.72,-178.6 -13.06,-34.5 -65.39,-28.6 -71.16,6.8 -4.77,29.3 24.19,169.7 16.06,184.9"
         style="fill:#176298;fill-opacity:1;fill-rule:nonzero;stroke:none"
         id="path308" />
      <path
         d="m 21174.3,7283.9 c -36.4,-0.4 -157.7,-129.1 -193.5,-67.2 -36.4,63.3 143.6,108.4 167.1,148.94 -51.4,162.07 -93.7,211.74 -42.1,231.56 53,20.3 54.8,-53.12 110.6,-189.13 19.5,-4.98 153.2,95.71 185.4,97.69 36.4,2.24 51.6,-39.46 28,-63.26 -9.2,-9.31 -12.7,-10.1 -160.5,-98.7 -25.3,-15.2 -26.3,-12.09 -17.9,-35.4 53.1,-148.6 57.1,-155.3 58.7,-170.5 4,-36.7 -45.3,-55.2 -66.5,-26.2 -17.5,24 -55.2,162.3 -69.3,172.2"
         style="fill:#176298;fill-opacity:1;fill-rule:nonzero;stroke:none"
         id="path310" />
      <path
         d="m 11949,931.102 c -28.5,-22.5 -46.1,-198.5 -112.2,-171.2 -67.6,27.797 47.5,173.399 41.4,219.899 -139.6,96.999 -203.5,110.499 -174.7,157.699 29.6,48.4 75.8,-8.6 203.1,-82.3 18.5,8 62.9,169.3 87.2,190.5 27.4,24 64.9,0.3 60.8,-33 -1.6,-13 -3.9,-15.7 -66.9,-176.1 -10.8,-27.5 -13.4,-25.6 7.4,-38.998 132.8,-85.301 140.1,-88.204 150.7,-99.2 25.4,-26.601 -2.3,-71.3 -36.8,-61.3 -28.5,8.3 -142.8,94.796 -160,94"
         style="fill:#176298;fill-opacity:1;fill-rule:nonzero;stroke:none"
         id="path312" />
      <path
         d="m 25367.5,12071.6 c -33.6,-13.9 -98.4,-178.4 -154.6,-134.2 -57.4,45.1 92.9,153.9 99.7,200.3 -108,131.3 -165.7,161.7 -125.1,199.3 41.5,38.6 70.5,-28.9 172.9,-134.4 20,2.6 106.7,145.8 135.8,159.6 33,15.6 62.6,-17.5 49.5,-48.3 -5.1,-12.1 -8,-14.1 -112.3,-151.3 -17.9,-23.5 -19.9,-21 -3.4,-39.6 104.5,-118.2 110.8,-122.9 117.9,-136.4 17.3,-32.5 -21.6,-68 -52,-49 -25.2,15.7 -111.7,130.1 -128.4,134"
         style="fill:#176298;fill-opacity:1;fill-rule:nonzero;stroke:none"
         id="path314" />
      <path
         d="M 795.867,900.199 C 760.242,893 664.977,744 618.352,798.199 570.699,853.5 739.141,931.402 754.711,975.602 673.984,1125.3 623.129,1166.2 670.195,1195.3 c 48.223,29.8 63.707,-42 143.899,-165.2 20.117,-1.3 132.676,122.6 163.945,130.5 35.331,9 58.021,-29.1 39.311,-56.9 -7.32,-10.9 -10.63,-12.3 -139.303,-126.899 C 855.988,957.199 854.492,960 867.035,938.602 946.914,802.5 952.152,796.703 956.59,782.102 967.297,746.801 922.301,719.5 896.086,744 874.422,764.301 811.555,893.199 795.867,900.199"
         style="fill:#176298;fill-opacity:1;fill-rule:nonzero;stroke:none"
         id="path316" />
      <path
         d="m 25304.3,8858.57 c -36.1,-4.57 -141.9,-146.27 -184.5,-88.85 -43.5,58.68 130.1,124.06 148.9,167.06 -69.6,155.11 -117.4,199.61 -68.3,225.21 50.2,26.23 60.5,-46.5 131.5,-175.22 19.9,-2.72 141.2,112.62 173,118.28 35.9,6.39 55.7,-33.29 35.1,-59.64 -8.1,-10.3 -11.5,-11.49 -148.2,-116.43 -23.4,-17.99 -24.7,-15.03 -13.8,-37.26 69.8,-141.55 74.6,-147.74 78,-162.63 8.1,-35.96 -38.8,-59.96 -63.1,-33.59 -20.2,21.8 -73.5,154.92 -88.6,163.07"
         style="fill:#176298;fill-opacity:1;fill-rule:nonzero;stroke:none"
         id="path318" />
      <path
         d="m 8443.59,10787.8 c -25.09,26.3 -201.96,27.3 -181.04,95.6 21.38,69.9 177.11,-31 222.83,-20.6 83.45,148.2 90.9,213 140.63,188.7 50.96,-24.8 -1.49,-76.2 -62.87,-209.8 9.67,-17.7 174.48,-46.8 197.9,-69 26.46,-25 6.32,-64.6 -27.15,-63.6 -13.1,0.4 -16.08,2.4 -181.67,50.1 -28.38,8.1 -26.77,10.9 -38.15,-11.1 -72.45,-140.2 -74.57,-147.7 -84.56,-159.3 -24.11,-27.9 -71.26,-4.4 -64.5,30.9 5.58,29.1 81.01,151.1 78.58,168.1"
         style="fill:#176298;fill-opacity:1;fill-rule:nonzero;stroke:none"
         id="path320" />
    </g>
  </g>
</svg>
