<svg version="1.1" id="Layer_1" xmlns="http://www.w3.org/2000/svg" xmlns:xlink="http://www.w3.org/1999/xlink" x="0px" y="0px"
	 width="100%" viewBox="0 0 432 428" enable-background="new 0 0 432 428" xml:space="preserve">
<path fill="#F47421" opacity="1.000000" stroke="none" 
	d="
M342.000000,429.000000 
	C258.645782,429.000000 175.291550,429.000000 91.294403,428.642548 
	C88.037170,427.849945 85.426643,427.390381 82.807930,426.983459 
	C55.116596,422.680786 33.372017,409.063782 18.134163,385.439423 
	C6.425704,367.286957 3.078279,346.884491 3.044654,325.806152 
	C2.930108,253.999924 2.928062,182.193268 3.086144,110.387215 
	C3.107672,100.608459 3.802905,90.772636 5.008485,81.065361 
	C9.790824,42.558132 39.233868,11.296060 77.156174,3.985619 
	C82.111801,3.030301 87.052429,1.997117 92.000000,1.000000 
	C175.020889,1.000000 258.041779,1.000000 341.723114,1.353579 
	C345.337769,2.142449 348.294830,2.559567 351.245819,3.015849 
	C379.333435,7.358760 401.232330,21.301237 416.412354,45.406837 
	C427.717224,63.358780 430.918243,83.474068 430.952637,104.193672 
	C431.072937,176.650681 431.027893,249.108032 430.953400,321.565155 
	C430.946228,328.535645 430.585480,335.533752 429.901733,342.471008 
	C425.322845,388.931183 394.676147,420.770447 348.466949,427.327728 
	C346.276306,427.638611 344.154083,428.431549 342.000000,429.000000 
M147.134735,289.273834 
	C165.731995,297.239716 185.072449,298.728851 204.941528,296.098877 
	C243.555801,290.987701 269.040985,261.756378 268.879486,222.885971 
	C268.862030,218.689865 267.575592,217.517731 263.427643,217.605072 
	C250.769623,217.871613 238.102264,217.666504 225.438889,217.723511 
	C220.801163,217.744385 214.247223,216.209381 212.035370,218.596893 
	C209.535202,221.295670 211.156708,227.635056 210.576920,232.340881 
	C210.001923,237.007950 212.051865,237.956894 216.238419,237.793564 
	C223.675766,237.503372 231.132584,237.712082 239.121384,237.712082 
	C237.517365,248.701141 232.549561,256.824738 224.674988,263.263824 
	C204.409424,279.835083 173.593414,280.090820 152.671387,264.312714 
	C130.026947,247.235672 126.350784,219.371552 131.936234,196.248764 
	C135.290771,182.361649 142.814407,170.793442 154.828064,162.778183 
	C179.064682,146.608047 215.125824,152.852829 232.814667,177.838409 
	C238.986084,186.555588 245.129913,188.883026 254.363220,187.765198 
	C254.527313,187.745331 254.698486,187.746719 254.862442,187.768204 
	C258.493073,188.243896 259.866669,186.817902 259.819977,183.019470 
	C259.643951,168.691772 259.681396,154.359955 259.805695,140.031143 
	C259.834442,136.717941 258.981628,135.032669 255.333817,135.227844 
	C251.346252,135.441193 247.331100,135.422806 243.341522,135.227905 
	C239.943100,135.061874 239.006744,136.567993 239.179504,139.718704 
	C239.391190,143.579391 239.229950,147.460495 239.229950,152.061981 
	C237.621521,151.177673 237.009018,150.953033 236.532440,150.562531 
	C223.891510,140.204330 209.264008,134.542892 193.134811,133.160370 
	C166.859375,130.908142 142.959274,136.444107 124.433266,156.726013 
	C104.789742,178.231369 99.977554,204.153870 104.972946,231.784485 
	C109.543060,257.062744 122.471191,277.269501 147.134735,289.273834 
M337.774994,200.887421 
	C328.173126,198.152161 318.482819,195.688812 308.994812,192.603409 
	C299.923309,189.653427 294.749420,182.217300 294.851654,173.509689 
	C294.944733,165.586227 300.698883,158.199493 308.980621,155.372040 
	C324.596588,150.040665 342.501770,155.239441 352.628876,168.218689 
	C353.889679,169.834579 354.949890,171.982986 355.154938,173.981888 
	C356.065521,182.859558 355.940613,182.872284 364.922638,182.871063 
	C366.755280,182.870819 368.596558,182.758041 370.418732,182.896271 
	C373.858643,183.157211 375.071533,181.786499 375.003235,178.252274 
	C374.800354,167.760086 374.933807,157.261414 374.933868,146.765274 
	C374.933899,134.435638 374.933044,134.435623 362.628082,134.426910 
	C355.542542,134.421890 355.557831,134.422562 355.249969,141.658569 
	C355.218811,142.390930 354.862061,143.109467 354.530273,144.279007 
	C352.871735,143.244522 351.652313,142.466522 350.416351,141.715683 
	C336.708221,133.387894 322.111481,130.427200 306.338806,134.322128 
	C287.271484,139.030594 274.691711,153.624863 273.268280,172.781952 
	C271.787292,192.713440 281.230011,208.051697 299.927063,215.696091 
	C305.156006,217.833954 310.583191,219.496338 315.949738,221.286057 
	C326.514801,224.809418 337.152924,228.121811 347.655670,231.820160 
	C352.582489,233.555054 356.049194,237.205841 357.783325,242.222916 
	C361.889893,254.103821 356.817902,267.019989 345.747498,273.072144 
	C324.405853,284.739532 293.727631,266.644196 293.994934,242.391891 
	C294.042114,238.109375 293.084167,236.211578 288.507141,236.644760 
	C284.874451,236.988571 281.179016,236.817719 277.519104,236.676590 
	C274.706238,236.568130 273.674957,237.721252 273.685669,240.500870 
	C273.750549,257.327698 273.746857,274.155029 273.684113,290.981873 
	C273.673431,293.835358 274.906433,294.800323 277.631287,294.709717 
	C281.625427,294.576904 285.631836,294.553436 289.624176,294.709412 
	C292.795319,294.833344 294.280396,293.764282 293.953430,290.389374 
	C293.723572,288.017181 293.908997,285.604706 293.908997,282.169922 
	C296.264954,283.856537 297.562347,284.775970 298.850098,285.708649 
	C312.644989,295.699738 327.800201,299.468567 344.660522,296.025024 
	C365.521179,291.764435 380.687042,275.191284 382.529053,254.401672 
	C384.472534,232.466705 372.958374,213.544479 352.783112,205.790085 
	C348.128326,204.001007 343.291870,202.684509 337.774994,200.887421 
M49.362751,146.440094 
	C49.348927,155.397095 49.348927,155.397095 55.425850,155.396927 
	C66.744362,155.396606 66.744354,155.396606 66.744591,166.690628 
	C66.745308,200.843323 66.749657,234.996017 66.739578,269.148712 
	C66.738808,271.752228 67.400497,274.652008 63.079113,274.666351 
	C58.653118,274.681061 52.169292,273.552032 50.324230,275.882782 
	C48.010616,278.805389 49.717026,284.760315 49.288403,289.369324 
	C48.896343,293.585236 50.455738,294.814087 54.608471,294.758514 
	C70.265938,294.548920 85.927849,294.664978 101.588097,294.671478 
	C108.011414,294.674164 108.051743,294.688019 107.971840,288.045959 
	C107.922012,283.904236 109.310486,278.122070 107.174500,276.063843 
	C104.817863,273.792938 99.171181,274.723236 94.952362,274.669617 
	C91.917534,274.631073 90.851631,273.520782 90.855865,270.538635 
	C90.908409,233.553879 90.903915,196.569000 90.854187,159.584213 
	C90.850334,156.716812 91.692825,155.344742 94.833481,155.317871 
	C99.069115,155.281631 105.006088,156.310806 107.070068,154.033859 
	C109.279533,151.596405 107.839485,145.850220 107.990021,141.548096 
	C108.001671,141.215240 107.951614,140.874756 108.003845,140.549637 
	C108.682007,136.327499 106.806412,135.127289 102.700333,135.188080 
	C88.375908,135.400040 74.046585,135.287506 59.719120,135.285294 
	C49.346359,135.283707 49.346359,135.274521 49.362751,146.440094 
z"/>
<path fill="none" opacity="1.000000" stroke="none" 
	d="
M342.468658,429.000000 
	C344.154083,428.431549 346.276306,427.638611 348.466949,427.327728 
	C394.676147,420.770447 425.322845,388.931183 429.901733,342.471008 
	C430.585480,335.533752 430.946228,328.535645 430.953400,321.565155 
	C431.027893,249.108032 431.072937,176.650681 430.952637,104.193672 
	C430.918243,83.474068 427.717224,63.358780 416.412354,45.406837 
	C401.232330,21.301237 379.333435,7.358760 351.245819,3.015849 
	C348.294830,2.559567 345.337769,2.142449 342.191772,1.353579 
	C372.311554,1.000000 402.623138,1.000000 432.967346,1.000000 
	C432.967346,143.542511 432.967346,286.085052 432.967346,429.000000 
	C402.980133,429.000000 372.958710,429.000000 342.468658,429.000000 
z"/>
<path fill="none" opacity="1.000000" stroke="none" 
	d="
M91.531342,1.000000 
	C87.052429,1.997117 82.111801,3.030301 77.156174,3.985619 
	C39.233868,11.296060 9.790824,42.558132 5.008485,81.065361 
	C3.802905,90.772636 3.107672,100.608459 3.086144,110.387215 
	C2.928062,182.193268 2.930108,253.999924 3.044654,325.806152 
	C3.078279,346.884491 6.425704,367.286957 18.134163,385.439423 
	C33.372017,409.063782 55.116596,422.680786 82.807930,426.983459 
	C85.426643,427.390381 88.037170,427.849945 90.825745,428.642548 
	C61.021557,429.000000 31.043116,429.000000 1.032337,429.000000 
	C1.032337,286.457428 1.032337,143.914825 1.032337,1.000000 
	C31.019869,1.000000 61.041275,1.000000 91.531342,1.000000 
z"/>
<path fill="#FFFBF9" opacity="1.000000" stroke="none" 
	d="
M146.790939,289.117371 
	C122.471191,277.269501 109.543060,257.062744 104.972946,231.784485 
	C99.977554,204.153870 104.789742,178.231369 124.433266,156.726013 
	C142.959274,136.444107 166.859375,130.908142 193.134811,133.160370 
	C209.264008,134.542892 223.891510,140.204330 236.532440,150.562531 
	C237.009018,150.953033 237.621521,151.177673 239.229950,152.061981 
	C239.229950,147.460495 239.391190,143.579391 239.179504,139.718704 
	C239.006744,136.567993 239.943100,135.061874 243.341522,135.227905 
	C247.331100,135.422806 251.346252,135.441193 255.333817,135.227844 
	C258.981628,135.032669 259.834442,136.717941 259.805695,140.031143 
	C259.681396,154.359955 259.643951,168.691772 259.819977,183.019470 
	C259.866669,186.817902 258.493073,188.243896 254.862442,187.768204 
	C254.698486,187.746719 254.527313,187.745331 254.363220,187.765198 
	C245.129913,188.883026 238.986084,186.555588 232.814667,177.838409 
	C215.125824,152.852829 179.064682,146.608047 154.828064,162.778183 
	C142.814407,170.793442 135.290771,182.361649 131.936234,196.248764 
	C126.350784,219.371552 130.026947,247.235672 152.671387,264.312714 
	C173.593414,280.090820 204.409424,279.835083 224.674988,263.263824 
	C232.549561,256.824738 237.517365,248.701141 239.121384,237.712082 
	C231.132584,237.712082 223.675766,237.503372 216.238419,237.793564 
	C212.051865,237.956894 210.001923,237.007950 210.576920,232.340881 
	C211.156708,227.635056 209.535202,221.295670 212.035370,218.596893 
	C214.247223,216.209381 220.801163,217.744385 225.438889,217.723511 
	C238.102264,217.666504 250.769623,217.871613 263.427643,217.605072 
	C267.575592,217.517731 268.862030,218.689865 268.879486,222.885971 
	C269.040985,261.756378 243.555801,290.987701 204.941528,296.098877 
	C185.072449,298.728851 165.731995,297.239716 146.790939,289.117371 
z"/>
<path fill="#FFFAF8" opacity="1.000000" stroke="none" 
	d="
M338.157013,201.018982 
	C343.291870,202.684509 348.128326,204.001007 352.783112,205.790085 
	C372.958374,213.544479 384.472534,232.466705 382.529053,254.401672 
	C380.687042,275.191284 365.521179,291.764435 344.660522,296.025024 
	C327.800201,299.468567 312.644989,295.699738 298.850098,285.708649 
	C297.562347,284.775970 296.264954,283.856537 293.908997,282.169922 
	C293.908997,285.604706 293.723572,288.017181 293.953430,290.389374 
	C294.280396,293.764282 292.795319,294.833344 289.624176,294.709412 
	C285.631836,294.553436 281.625427,294.576904 277.631287,294.709717 
	C274.906433,294.800323 273.673431,293.835358 273.684113,290.981873 
	C273.746857,274.155029 273.750549,257.327698 273.685669,240.500870 
	C273.674957,237.721252 274.706238,236.568130 277.519104,236.676590 
	C281.179016,236.817719 284.874451,236.988571 288.507141,236.644760 
	C293.084167,236.211578 294.042114,238.109375 293.994934,242.391891 
	C293.727631,266.644196 324.405853,284.739532 345.747498,273.072144 
	C356.817902,267.019989 361.889893,254.103821 357.783325,242.222916 
	C356.049194,237.205841 352.582489,233.555054 347.655670,231.820160 
	C337.152924,228.121811 326.514801,224.809418 315.949738,221.286057 
	C310.583191,219.496338 305.156006,217.833954 299.927063,215.696091 
	C281.230011,208.051697 271.787292,192.713440 273.268280,172.781952 
	C274.691711,153.624863 287.271484,139.030594 306.338806,134.322128 
	C322.111481,130.427200 336.708221,133.387894 350.416351,141.715683 
	C351.652313,142.466522 352.871735,143.244522 354.530273,144.279007 
	C354.862061,143.109467 355.218811,142.390930 355.249969,141.658569 
	C355.557831,134.422562 355.542542,134.421890 362.628082,134.426910 
	C374.933044,134.435623 374.933899,134.435638 374.933868,146.765274 
	C374.933807,157.261414 374.800354,167.760086 375.003235,178.252274 
	C375.071533,181.786499 373.858643,183.157211 370.418732,182.896271 
	C368.596558,182.758041 366.755280,182.870819 364.922638,182.871063 
	C355.940613,182.872284 356.065521,182.859558 355.154938,173.981888 
	C354.949890,171.982986 353.889679,169.834579 352.628876,168.218689 
	C342.501770,155.239441 324.596588,150.040665 308.980621,155.372040 
	C300.698883,158.199493 294.944733,165.586227 294.851654,173.509689 
	C294.749420,182.217300 299.923309,189.653427 308.994812,192.603409 
	C318.482819,195.688812 328.173126,198.152161 338.157013,201.018982 
z"/>
<path fill="#FFFAF7" opacity="1.000000" stroke="none" 
	d="
M49.362595,145.966064 
	C49.346359,135.274521 49.346359,135.283707 59.719120,135.285294 
	C74.046585,135.287506 88.375908,135.400040 102.700333,135.188080 
	C106.806412,135.127289 108.682007,136.327499 108.003845,140.549637 
	C107.951614,140.874756 108.001671,141.215240 107.990021,141.548096 
	C107.839485,145.850220 109.279533,151.596405 107.070068,154.033859 
	C105.006088,156.310806 99.069115,155.281631 94.833481,155.317871 
	C91.692825,155.344742 90.850334,156.716812 90.854187,159.584213 
	C90.903915,196.569000 90.908409,233.553879 90.855865,270.538635 
	C90.851631,273.520782 91.917534,274.631073 94.952362,274.669617 
	C99.171181,274.723236 104.817863,273.792938 107.174500,276.063843 
	C109.310486,278.122070 107.922012,283.904236 107.971840,288.045959 
	C108.051743,294.688019 108.011414,294.674164 101.588097,294.671478 
	C85.927849,294.664978 70.265938,294.548920 54.608471,294.758514 
	C50.455738,294.814087 48.896343,293.585236 49.288403,289.369324 
	C49.717026,284.760315 48.010616,278.805389 50.324230,275.882782 
	C52.169292,273.552032 58.653118,274.681061 63.079113,274.666351 
	C67.400497,274.652008 66.738808,271.752228 66.739578,269.148712 
	C66.749657,234.996017 66.745308,200.843323 66.744591,166.690628 
	C66.744354,155.396606 66.744362,155.396606 55.425850,155.396927 
	C49.348927,155.397095 49.348927,155.397095 49.362595,145.966064 
z"/>
</svg>